<svg xmlns="http://www.w3.org/2000/svg" xmlns:xlink="http://www.w3.org/1999/xlink" width="157" height="100" viewBox="0 0 157 100">
    <defs>
        <path id="uy9erxqw3d" d="M0.05 0.333L79.795 0.333 79.795 106.439 0.05 106.439z"/>
        <path id="9be1corgge" d="M0.05 0.191L428.062 0.191 428.062 428.821 0.05 428.821z"/>
        <path id="4t5gcpyq9g" d="M0.05 0.191L428.062 0.191 428.062 428.821 0.05 428.821z"/>
        <path id="h3vktx6w9i" d="M0.05 0.259L75.225 0.259 75.225 34.531 0.05 34.531z"/>
        <rect id="qkrxa0wq5a" width="156" height="100" x=".517" y="0" rx="8"/>
        <rect id="vsysjhc2hb" width="140" height="84" x="7.989" y="8" rx="8"/>
    </defs>
    <g fill="none" fill-rule="evenodd">
        <g>
            <g>
                <g>
                    <g>
                        <g transform="translate(-188 -977) translate(0 162) translate(0 531) translate(0 200) translate(188 84)">
                            <rect width="148" height="92" x="4.517" y="4" stroke="#FFF" stroke-width="8" rx="8"/>
                            <mask id="3p5fhf7a1c" fill="#fff">
                                <use xlink:href="#vsysjhc2hb"/>
                            </mask>
                            <use fill="#FFF" xlink:href="#vsysjhc2hb"/>
                            <g mask="url(#3p5fhf7a1c)">
                                <g>
                                    <path fill="#EFEFED" d="M11.323 440.079L439.461 440.079 439.461 11.339 11.323 11.339z" transform="translate(-50.928 -204)"/>
                                    <g>
                                        <path fill="#C1EBB3" d="M90.069 239.841L82.073 213.026 95.851 209.813 92.957 238.039zM124.009 207.578L149.58 238.858 161.03 232.306 139.084 197.455zM75.71 315.275L62.719 304.25 57.528 303.431 52.761 305.589 51.552 310.487 52.715 315.401 64.071 326.616zM193.768 247.766L187.917 234.976 188.334 232.983 196.057 229.675 197.834 231.078 204.298 241.536zM159.402 289.145L242.228 240.032 247.765 243.623 239.397 296.674 226.028 297.713 205.392 302.502 170.379 306.379 166.826 296.768zM91.705 290.263L98.848 315.071 112.689 341.155 129.047 346.196 144.213 321.185 152.073 310.535 111.557 288.231zM4.69 248.314c.999.754 55.372 23.82 55.372 23.82l30.546 7.283.8-20.673-13.1-15.34-24.79-31.377-6.794-8.947-10.852-29.77-34.792 6.05 3.61 68.954z" transform="translate(-50.928 -204)"/>
                                        <g transform="translate(-50.928 -204) translate(11.614 172.978)"/>
                                        <path fill="#8FD5E8" d="M226.115 271.796c-6.67 3.717-11.388 8.19-20.007 10.396-8.62 2.205-27.745 8.253-31.771 11.214-4.027 2.962-4.656 4.789-1.51 4.915 3.145.126 6.857-2.268 10.884-3.97 4.026-1.7 13.275-5.859 19.44-5.985 6.166-.126 9.311 1.638 10.947.378 1.636-1.26 3.838-.378 7.801-.819 3.964-.441 8.871-4.914 9.186-9.64.314-4.725-2.328-8.757-4.97-6.49M103.449 305.015c1.541.63 4.435-.724 8.178.252 3.743.977 8.116 2.614 8.808 5.513.692 2.898-.22 2.489-1.541 2.583-1.322.095-2.234 2.11-1.667 3.686.566 1.575 2.202 4.788 3.743 4.536 1.541-.252.157-2.867.692-4.6.535-1.732 2.988-1.858 3.114-5.008.126-3.15-2.705-6.238-6.952-7.844-4.246-1.606-9.814-1.417-11.45-.977-1.635.441-4.31 1.387-2.925 1.859" transform="translate(-50.928 -204)"/>
                                        <g transform="translate(-50.928 -204) translate(11.614 11.182)">
                                            <mask id="50tvh01btf" fill="#fff">
                                                <use xlink:href="#9be1corgge"/>
                                            </mask>
                                            <path fill="#FFF" d="M456.604 163.03l-52.736 10.552-4.568 1.327-.976-3.376 4.705-1.369.144-.041 52.743-10.552.688 3.459zM307.628 459.559c-.764-.973-1.448-1.797-2.178-2.678-6.043-7.283-14.97-18.042-14.048-35.799.902-17.398-4.229-16.845-4.243-16.844l-.234-3.515c.026-.001 9.097-.875 7.986 20.538-.85 16.395 7.55 26.52 13.236 33.374.87 1.047 1.681 2.026 2.247 2.747l-2.766 2.177zm9.435-414.675c-3.788-5.912-7.301-11.236-9.435-13.956-.764-.973-1.448-1.797-2.178-2.677-2.305-2.779-5.03-6.063-7.467-10.048-5.526 1.833-26.36 8.772-29.319 10.149-1.468.682-2.426 1.28-2.81 1.86-.178.271-.12.654.197 1.203 1.118 1.933 6.74 16.117 10.21 24.868.627 1.583 1.174 2.963 1.7 4.278 3.888-1.556 8.21-3.267 12.607-5.007 9.823-3.889 20.027-7.929 26.495-10.67zM115.456 28.042l13.816-9.16.13-.077c.036-.019 2.902-1.582 7.354-4.014-15.381-14.12-48.37-43.988-52.742-44.514-4.737-.568-17.81 2.323-23.064 3.555L80.426 9.094l1.907 3.47.01-.006 12.74 26.511c6.116-2.532 19.348-10.416 20.373-11.027zM55.465 157.653l-28.307 5.664c2.63 7.535 8.937 25.406 11.069 29.676.771 1.545 4.635 6.727 9.743 13.32l-.114-.439c.067-.017 9.08-2.38 20.265-5.154l-12.656-43.067zm5.492 244.808l9.274 16.791 10.728-20.359c-5.893.38-15.637 2.545-20.002 3.568zm-33.51-24.843l11.677-8.69-1.055-37.86-17.275 1.966 6.654 44.584zm35.278-29.46L41.6 331.72l.956 34.271 20.17-17.833zm31.893 24.814l-29.072-22.62-22.422 19.824 16.067 29.087c4.16-.992 17.2-3.969 23.65-3.94l11.777-22.351zm113.528-176.095c-10.19 2.102-22.47 3.123-22.513 3.126l-.29-3.514c.043-.003 11.479-.955 21.21-2.879l-24.413-50.048-38.98 16.346c-1.385 1.62-7.548 8.778-9.105 9.687-1.242.726-8.508 2.853-12.292 3.935 16.538 25.819 42.614 66.679 43.524 69.049.365.95.644 1.37.902 1.404.494.065 1.381-.348 2.64-1.054l.76-.425h.007c5.917-3.316 37.302-20.898 47.563-27.15l-9.013-18.477zm144.228 213.815c5.152-2.773 13.986-8.803 22.978-15.32 13.664-9.904 27.568-20.827 29.488-23.164 3.03-3.683 7.866-18.431 8.66-20.896-.187-2.023-1.246-12.557-3.076-14.685-2.277-2.65-19.043-15.024-19.091-15.06l-.176-.13-.134-.16-33.08-39.428c-2.038 4.17-6.517 13.113-12.014 22.755-1.62 2.844-4.438 6.87-7.867 11.447 2.506 3.658 4.633 7.519 6.655 12.339 2.185 5.208 4.264 11.587 6.598 20.123 2.86 10.46 2.047 29.48 1.407 44.452-.325 7.599-.604 14.128-.348 17.727zm-13.89-157.513l19.587 23.346 39.133-15.7 1.307 3.266-35.788 14.36c9.512 3.042 30.633 9.717 34.255 10.183 4.504.58 9.002-.717 9.014-.72l.152-.035 39.05-7.606.66 3.46-38.956 7.587c-.58.16-5.433 1.436-10.36.8-3.753-.483-23.687-6.748-33.733-9.951l30.782 36.69c1.68 1.243 15.066 11.174 18.83 14.77l56.337-6.409.385 3.5-54.704 6.224c1.812 5.107 2.603 14.37 2.606 14.402l.03.339-.113.35c-.016.051-5.664 17.855-9.406 22.406-2.085 2.535-16.293 13.75-30.135 23.783-8.139 5.899-16.192 11.423-21.653 14.593 4.662 1.24 9.004 2.266 12.128 2.742 5.299.808 14.032.468 22.311-.413 9.171-.975 17.663-2.573 20.166-3.973l57.501-42.79 2.092 2.824-57.597 42.862-.087.065-.078.046c-2.812 1.642-11.946 3.438-21.625 4.467-8.545.909-17.613 1.252-23.206.399-3.539-.54-8.571-1.757-13.873-3.194l.597 2.302c1.848 7.149 4.485 17.348 9.561 29.668l-3.247 1.336c-5.168-12.54-7.84-22.877-9.714-30.122-.397-1.537-.757-2.927-1.128-4.274-11.068-3.133-22.01-6.723-22.061-6.74l-.162-.053-.14-.078-36.952-20.429 1.692-3.087 36.81 20.351c1.305.426 10.489 3.412 20.13 6.182-.271-3.993.007-10.527.33-18.08.63-14.741 1.43-33.466-1.283-43.391-2.273-8.318-4.308-14.556-6.46-19.683-1.75-4.171-3.568-7.572-5.653-10.742-12.735 16.624-31.394 38.285-31.466 38.37l-2.656-2.302c.097-.113 33.75-39.179 41.18-52.212 6.189-10.856 11.082-20.835 12.594-23.97l-19.68-23.46 2.696-2.26zm-41.327 36.07c.399-4.622 2.947-17.793 8.959-31.137 3.73-8.278 8.803-16.656 15.546-23.18l2.436 2.536c-6.373 6.166-11.203 14.161-14.776 22.091-5.816 12.91-8.273 25.565-8.655 29.994l-3.51-.303zm-172.617.198l18.357-10.807c-15.146-2.243-62.598 1.24-62.75 1.25l-.247-3.514c.165-.012 55.979-4.115 67.36-.305l83.263-49.022 1.775 3.032-81.46 47.96c5.578 3.958 7.351 9.584 8.779 14.115.29.918.564 1.792.8 2.442l-3.303 1.199c-.326-.901-.584-1.719-.855-2.58-1.374-4.359-3.11-9.869-8.82-13.174l-21.123 12.436-1.776-3.032zm39.6 114.209l-.658 7.427h.003c-.003.045-.613 8.677-1.076 18.294 9.21-5.057 17.952-9.88 22.56-12.48l-20.83-13.241zm-5.342 27.702c.096-2.136.201-4.251.309-6.263l-61.68-49.91-11.069 21.005c9.128 5.015 39.733 32.687 53.654 45.453 5.317-2.906 12.049-6.589 18.786-10.285zm-.332 19.503c-.169-3.81-.06-9.5.163-15.401-5.674 3.11-11.25 6.161-15.885 8.695 2.65 2.44 4.24 3.92 4.267 3.945l-2.395 2.577c-.03-.028-1.966-1.83-5.128-4.742-5.048 2.757-8.369 4.568-8.406 4.588l-1.68-3.087c.036-.019 2.902-1.582 7.354-4.013-14.684-13.48-45.397-41.297-51.965-44.26l-12.526 23.772 10.037 18.171-3.083 1.696-38.88-70.395-55.986 41.662-2.092-2.824L24.245 380l-6.95-46.57-33.355 3.795-.385-3.5 33.22-3.78-6.671-44.706-31.311 6.098-.66-3.46 100.86-19.644.662 3.46-66.094 12.872 6.713 44.983 17.696-2.013-.005-.214.544-.534 41.852-41.08 2.464 2.509-40.415 39.668 23.001 17.897 29.86-26.399 2.325 2.632-29.363 25.962 30.34 23.606.02.02 60.755 49.162c.333-5.746.626-9.885.628-9.916l.007-.034.822-9.279-46.201-29.368 1.886-2.977 71.89 45.697c5.032-3.451 9.363-10.529 11.034-13.495l-57.043-39.4 1.995-2.895 19.758 13.647 12.02-31.21 3.275 1.267-12.322 31.997 33.909 23.42c.503-3.818 1.222-10.267 1.06-14.93-.255-7.25.751-32.185.754-32.257l3.51.138c-.003.071-1.005 24.894-.756 32.008.22 6.275-1.07 15.519-1.452 18.094l7.827 11.633 34.37-53.85c1.593-5.687 2.16-14.239 2.089-22.816-.091-10.943-1.224-21.85-2.594-26.927-.254-.941-.465-2.086-.64-3.394-.119-.887-.22-1.835-.306-2.833l-9.169-1.771c-5.344 2.775-48.991 25.397-56.076 27.834-3.027 1.04-7.804 2.219-12.922 3.34-7.659 1.677-16.142 3.238-20.56 4-3.563.615-8.586.908-13.62.937-5.492.031-11.004-.251-14.635-.77-7.03-1.004-15.71-4.494-15.735-4.504l1.307-3.267c.024.01 8.303 3.338 14.923 4.284 3.501.5 8.821.773 14.127.742 4.826-.028 9.637-.307 13.041-.895 4.368-.754 12.773-2.301 20.409-3.973 4.993-1.093 9.632-2.235 12.523-3.23 6.802-2.339 49.194-24.297 55.387-27.511l1.947-10.155 3.454.662-1.777 9.265 7.137 1.38c-.271-5.498-.26-12.133-.25-18.23.014-7.916.026-14.903-.571-16.995-1.363-4.777-10.816-12.807-10.844-12.831l2.285-2.674c.03.025 10.288 8.733 11.945 14.54.72 2.529.709 9.764.694 17.96-.011 6.857-.024 14.405.384 20.27.102 1.464.228 2.797.384 3.957.152 1.134.336 2.13.557 2.953 1.43 5.297 2.611 16.566 2.704 27.808.075 8.993-.547 18.02-2.293 24.06l-1.686-.49 1.48.944-35.332 55.355 12.713 18.895-2.918 1.97-22.033-32.745c-2.277 3.85-7.049 11.039-12.585 14.29-3.241 1.902-14.96 8.368-27.04 14.997-.273 6.551-.432 13.063-.247 17.222l-3.51.152zm1.103-416.6c-.442-3.082-.887-7.156-1.103-12.031-.169-3.81-.06-9.5.163-15.4-5.675 3.11-11.251 6.16-15.885 8.694 2.65 2.44 4.24 3.92 4.267 3.945l.076.07.068.082 12.414 14.64zm17.566 34.146c-8.62-14.394-15.348-25.715-16.096-26.973L144.54 21.975c-.372-.345-2.219-2.061-5.052-4.672-4.604 2.516-7.77 4.243-8.315 4.54l-13.78 9.137-.97-1.468.9 1.509c-.047.029-16.859 10.099-22.601 11.929-3.345 1.066-17.986 5.005-30.396 8.08-8.482 2.102-15.99 3.813-18.335 3.974-3.144.214-8.853-2.264-14.396-5.726-1.84-1.15-3.678-2.414-5.409-3.726l27.026 91.97c5.65-1.56 12.188-3.364 18.87-5.203-.76-6.32-3.676-30.862-4.119-38.842-.516-9.297 4.402-34.576 4.416-34.648l3.454.66c-.014.073-4.85 24.947-4.36 33.795.138 2.5.532 6.718 1.028 11.501 12.372-3.086 79.538-19.913 84.258-22.662 4.41-2.568 16.36-10.9 20.376-13.716zm12.882 21.43c-3.772-6.249-7.546-12.53-11.068-18.403-4.227 2.962-15.957 11.131-20.428 13.735-5.184 3.018-74.559 20.386-85.647 23.15.964 8.971 2.14 18.881 2.64 23.055 18.58-5.108 37.284-10.21 40.281-10.885 3.769-.848 18.312-4.442 29.864-7.589 6.975-1.9 12.75-3.599 14.092-4.336 3.354-1.842 24.486-15.096 30.266-18.726zM352.685-15.777c.39 1.364.867 3.209 1.408 5.301 1.848 7.15 4.485 17.348 9.561 29.668.75 1.821 1.483 3.52 2.189 5.101.41.916.815 1.802 1.216 2.658 4.762-3.534 9.503-6.83 12.309-8.527 6.411-3.88 17.634-4.483 17.667-4.485l.126-.007.094.007c.1.007 35.003 2.548 39.016 4.904 2.72 1.597 5.018 5.233 7.786 9.614 1.44 2.277 3.014 4.768 4.823 7.242l-2.835 2.082c-1.862-2.546-3.48-5.108-4.96-7.45-2.519-3.985-4.61-7.294-6.59-8.456-3.188-1.872-35.387-4.267-37.388-4.415-1.173.075-10.605.764-15.923 3.982-3.192 1.932-9.006 6.024-14.433 10.142-4.678 3.55-9.04 7.091-11.13 9.236-4.065 4.172-14.26 31.952-15.814 36.23 4.515 13.204 9.14 33.53 9.158 33.606l-3.427.786c-.023-.1-7.97-35.02-12.806-42.044-1.96-2.843-5.307-8.148-9.012-14.017-1.543-2.445-3.148-4.989-4.739-7.49-6.582 2.813-17.052 6.958-27.12 10.944-12.687 5.022-24.733 9.791-27.239 11.171-.812.447-1.465.917-1.966 1.402-.717.694-1.12 1.415-1.221 2.142-.104.735.085 1.542.554 2.397.348.634.84 1.282 1.473 1.937 1.77 1.83 5.044 6.082 8.389 10.667 3.983 5.463 8.073 11.407 9.812 14.273 1.753 2.886 5.358 10.533 8.67 17.556 2.836 6.015 5.454 11.566 6.386 13.049.626.996 2.957 1.486 5.674 2.056 3.585.753 7.725 1.622 10.955 4.342 2.63 2.214 5.282 3.948 8.173 5.135 2.868 1.178 5.993 1.826 9.6 1.886 6.752.11 10.873 6.703 12.462 9.86 1.274-.519 2.528-.981 3.803-1.394-.704-4.047-2.72-15.106-4.613-20.495-2.315-6.589-13.906-24.09-13.939-24.14l2.931-1.943c.034.051 11.858 17.904 14.324 24.925 1.92 5.465 3.924 16.292 4.696 20.69 4.89-1.193 10.55-1.773 18.992-1.99 19.82-.509 28.41.85 28.434.854l-.537 3.487c-.024-.003-8.376-1.325-27.815-.826-18.539.476-23.095 2.799-36.95 9.86l-1.55.791h-.007c-6.068 3.088-19.19 10.621-33.63 19.248 1.296 2.457 3.574 7.255 3 9.671-.42 1.762-5.353 6.354-10.991 11.6-6.029 5.612-12.904 12.009-15.247 15.497-2.45 3.647-5.009 8.334-7.177 13.6-1.852 4.5-3.418 9.424-4.383 14.482-2.131 11.174-6.253 40.172-6.265 40.256l-3.482-.496c.013-.084 4.146-29.166 6.293-40.421 1.008-5.287 2.648-10.442 4.589-15.158 2.264-5.498 4.941-10.4 7.507-14.22 2.582-3.844 9.609-10.383 15.77-16.116 5.219-4.857 9.785-9.107 9.96-9.837.323-1.364-1.457-4.972-2.58-7.059-4.775 2.867-9.649 5.827-14.42 8.76-16.34 10.05-31.447 19.78-37.205 24.455l-2.216-2.729c4.174-3.387 13.025-9.297 23.668-16.045-2.92-4.189-5.717-8.044-8.452-10.996-2.863-3.09-5.61-5.154-8.28-5.475-2.266-.272-6.216.63-10.773 2.02 2.356 12.784 3.577 23.962 3.103 29.386l-3.51-.303c.449-5.128-.715-15.75-2.962-28.01-3.19 1.057-6.535 2.257-9.716 3.398-3.175 1.14-6.194 2.223-8.611 3.01-1.125.366-2.36.712-3.666 1.036l9.346 19.16-1.583.772.936 1.488c-8.542 5.37-42.832 24.58-49.068 28.074l.002.003-.76.426c-1.886 1.058-3.39 1.654-4.815 1.467-1.66-.219-2.829-1.31-3.722-3.637-1.182-3.077-56.444-89.032-56.603-89.28l2.958-1.902c.047.072 4.742 7.375 11.415 17.786 3.179-.898 11.427-3.261 12.498-3.888 1.265-.738 8.453-9.217 8.473-9.241l.274-.324.393-.165 39.173-16.426-1.937-3.972 3.165-1.544 28.276 57.965c1.495-.356 2.901-.738 4.158-1.147 2.621-.853 5.494-1.884 8.514-2.969 3.344-1.199 6.863-2.461 10.242-3.566-.977-5.003-2.118-10.211-3.39-15.377-3.809-15.456-8.772-30.456-13.975-38.367-4.72-7.176-14.118-22.533-23.81-38.568-5.878 3.692-27.023 16.954-30.392 18.803-1.63.896-7.67 2.695-14.864 4.654-11.465 3.122-26.15 6.747-30.014 7.615-4.196.944-40.124 10.834-62.362 16.977l3.723 12.667 33.755-6.754.688 3.46-33.445 6.69 12.611 42.917c17.097-4.2 37.465-8.875 39.142-7.755 2.473 1.65 29.63 35.105 29.71 35.201l-2.726 2.219c-.077-.095-26.883-33.112-28.939-34.485-.907-.605-19.857 3.992-36.218 8.118L82 235.481l-3.372.992-9.531-32.435c-8.697 2.206-16.184 4.152-19.08 4.907 12.632 16.19 30.775 38.537 30.852 38.633l-2.725 2.219c-.115-.142-40.195-49.505-43.054-55.233-2.26-4.528-8.86-23.258-11.404-30.553l-47.836 9.572-.688-3.46 50.724-10.148.1-.035.005.013 28.476-5.697-3.65-12.423c-8.386 2.318-14.128 3.91-14.187 3.926l-.468-1.695-1.678.516L10.2 65.587l3.358-1.033 23.779 77.359c2.273-.63 6.753-1.87 12.486-3.455L21.312 41.432c-1.305-1.25-2.426-2.485-3.28-3.652-1.86-2.546-3.48-5.108-4.96-7.45-2.517-3.985-4.609-7.294-6.59-8.456-3.285-1.93-37.389-4.415-37.487-4.421l.248-3.515c.1.007 35.003 2.548 39.016 4.904 2.72 1.597 5.018 5.233 7.786 9.614 1.44 2.277 3.014 4.768 4.822 7.242 2.447 3.346 7.48 7.4 12.585 10.59 4.993 3.118 9.914 5.364 12.305 5.2 2.125-.144 9.42-1.817 17.73-3.876 10.696-2.65 22.968-5.917 28.229-7.43L79.323 14.39l-1.98-3.602-37.978-68.76 3.082-1.696 16.736 30.302c4.533-1.081 19.652-4.53 25.245-3.858 5.357.644 40.399 32.31 55.584 46.236 5.318-2.907 12.049-6.59 18.786-10.285.47-10.504 1.175-20.46 1.178-20.51l3.51.235c-.004.045-.614 8.677-1.077 18.293 11.373-6.245 22.034-12.132 25.078-13.92 6.85-4.02 12.647-15.386 12.664-15.419l1.561.806 1.46-.985 23.627 35.116-2.918 1.971-22.033-32.745c-2.277 3.848-7.049 11.039-12.585 14.289-3.242 1.903-14.96 8.37-27.04 14.998-.273 6.55-.432 13.062-.247 17.221.44 9.912 1.837 16.335 2.147 17.657 1.183 1.993 10.244 17.237 20.836 34.88 2.751-1.713 8.932-5.579 15.799-9.997l-22.203-32.204 2.89-1.998L203.71 62.71c10.755-6.974 22.206-14.712 24.415-17.416 3.66-4.48-15.57-30.729-15.626-30.804l2.836-2.068c.06.082 20.914 28.496 15.515 35.105-4.178 5.113-36.729 25.522-44.083 30.1 12.17 20.25 25.845 42.792 31.81 51.86 5.448 8.283 10.568 23.678 14.455 39.455 1.252 5.081 2.378 10.21 3.347 15.16 4.85-1.452 9.147-2.384 11.843-2.06 3.62.435 7.04 2.907 10.441 6.579 2.9 3.129 5.816 7.155 8.853 11.515 3.523-2.217 7.204-4.504 10.948-6.806 4.781-2.94 9.668-5.907 14.457-8.783-2.595-3.988-10.2-14.716-17.864-16.327-4.56-.958-9.248-4.04-13.364-7.731-5.715-5.127-10.41-11.516-12.027-14.907-2.23-4.682-9.328-5.614-9.349-5.617l.468-3.486c.027.003 9.007 1.18 12.06 7.587 1.48 3.103 5.838 9.004 11.188 13.804 3.71 3.328 7.855 6.088 11.74 6.905 8.99 1.889 17.414 13.75 20.162 17.967 14.502-8.662 27.7-16.237 33.827-19.356l-.001-.003 1.55-.79c3.464-1.765 6.368-3.245 9.05-4.481-1.318-2.615-4.488-7.672-9.296-7.751-4.07-.067-7.612-.804-10.88-2.147-3.241-1.332-6.19-3.254-9.095-5.7-2.542-2.141-6.225-2.915-9.413-3.584-3.504-.736-6.51-1.367-7.932-3.628-1.055-1.68-3.713-7.314-6.592-13.421-3.275-6.945-6.84-14.507-8.49-17.225-1.724-2.838-5.745-8.685-9.648-14.038-3.246-4.451-6.406-8.557-8.073-10.281-.86-.892-1.542-1.795-2.037-2.696-.84-1.53-1.166-3.07-.953-4.575.213-1.514.957-2.925 2.254-4.181.733-.711 1.64-1.37 2.722-1.968 1.519-.836 5.946-2.692 11.772-5.045L273 57.578c-3.427-8.645-8.981-22.656-9.99-24.399-1.066-1.845-1.071-3.415-.086-4.91.78-1.183 2.214-2.16 4.269-3.115 3.04-1.414 22.64-7.958 29.025-10.08-3.084-5.962-5.297-13.335-4.815-22.622l3.509.179c-.85 16.395 7.55 26.519 13.236 33.373.87 1.047 1.681 2.026 2.247 2.747 2.252 2.87 5.967 8.514 9.935 14.716l.108-.049c7.704-3.464 11.306-9.142 14.54-14.24 1.755-2.768 3.41-5.378 5.575-7.52l2.477 2.507c-1.89 1.87-3.437 4.312-5.08 6.901-3.448 5.437-7.284 11.483-15.712 15.395 1.498 2.358 3.004 4.745 4.456 7.045 3.69 5.844 7.023 11.127 8.928 13.893.724 1.052 1.504 2.642 2.31 4.6 3.422-9.167 11.364-29.725 15.172-33.633 2.167-2.224 6.465-5.737 11.087-9.259-.494-1.044-1.012-2.169-1.554-3.381-.716-1.605-1.461-3.335-2.229-5.199-5.168-12.54-7.84-22.876-9.714-30.122-.49-1.898-.924-3.573-1.393-5.217l3.385-.966z" mask="url(#50tvh01btf)"/>
                                        </g>
                                        <g transform="translate(-50.928 -204) translate(11.614 11.182)">
                                            <mask id="pj029s0ofh" fill="#fff">
                                                <use xlink:href="#4t5gcpyq9g"/>
                                            </mask>
                                            <path fill="#FFF" d="M224.08 288.716c-3.635-.23-7.01-.112-10.095.214-6.48.684-11.701 2.285-15.355 3.505-3.143 1.049-10.696 1.864-19.46 2.81-10.896 1.176-23.726 2.561-31.28 4.641 14.797 8.58 34.737 27.36 40.245 32.662 13.584-9.19 24.64-18.558 28.99-26.052 2.686-4.626 4.991-10.86 6.955-17.78zm-110.544 60.518c1.179 4.208 2.236 8.784 3.17 13.593.305 1.574.597 3.175.877 4.796 14.184-3.641 37.434-14.58 58.197-27.173 2.743-1.663 5.44-3.355 8.065-5.06-6.882-6.582-28.15-26.371-41.782-32.938-8.403 6.896-25.608 40.935-28.527 46.782zM81.913 271.45c1.51 24.88 12.11 41.053 20.36 53.639 1.493 2.28 2.91 4.441 4.287 6.686 1.756 2.863 3.365 6.459 4.825 10.6 5.428-10.557 17.637-33.428 25.84-42.15-5.56-2.691-11.298-6.045-17.489-9.665-10.909-6.377-23.243-13.588-37.823-19.11zm30.754 97.23c-.285-1.66-.584-3.298-.897-4.908-.561-2.895-1.166-5.697-1.815-8.371l-8.8 14.777c3.968-.35 7.851-.837 11.512-1.499zm126.78-148.37c-.813-.815-1.938-1.32-3.18-1.32-1.243 0-2.368.505-3.181 1.32-.815.815-1.318 1.941-1.318 3.186 0 1.244.503 2.37 1.318 3.185.813.815 1.938 1.32 3.18 1.32 1.243 0 2.368-.505 3.18-1.32.815-.815 1.318-1.941 1.318-3.185 0-1.245-.503-2.371-1.317-3.186zm-53.524-18.929c-5.857 5.646-13.8 9.965-21.713 14.267-2.986 1.623-5.968 3.244-8.953 5.015-6.388 3.791-21.28 14.33-35.849 24.638-13.365 9.458-26.462 18.726-32.772 22.597 13.72 5.499 25.308 12.274 35.636 18.31 7.035 4.114 13.48 7.88 19.42 10.571 7.057-3.308 23.438-5.077 36.946-6.535 8.5-.917 15.825-1.708 18.42-2.574 3.894-1.3 9.464-3.007 16.416-3.74 3.62-.383 7.61-.5 11.925-.16 5.032-20.037 7.478-43.725 8.157-51.12-1.542-.458-2.922-1.296-4.03-2.405-1.724-1.727-2.791-4.114-2.791-6.75 0-.48.036-.951.104-1.412-5.264-2.225-19.406-8.545-40.916-20.702zM81.711 264.924c3.527-1.603 18.975-12.534 34.807-23.738 14.648-10.364 29.62-20.96 36.183-24.854 2.847-1.69 5.976-3.39 9.11-5.094 7.11-3.865 14.246-7.745 19.556-12.485-13.09-7.803-23.965-16.755-31.999-25.94-8.13-9.296-13.385-18.876-15.14-27.819-7.736 1.718-31.237 8.202-38.322 24.758-4.337 10.134-7.982 26.022-10.497 43.389-2.5 17.253-3.872 35.893-3.698 51.783zm192.638-153.775c7.797-.034 16.171-.159 24.148-.498 10.52-.448 20.27-1.266 26.898-2.74 10.33-2.299 22.03.402 36.413 3.72 5.497 1.269 11.396 2.63 17.689 3.82 3.32.628 7.126 1.561 11.29 2.714-2.627-15.46-5.682-28.174-7.992-33.222-1.46-3.186-4.318-7.788-7.97-13.152-10.284.72-17.326 1.276-18.476 1.517-2.153.451-12.535 4.186-24.114 8.494-16.04 5.968-34.241 12.988-36.26 13.98-1.297.64-5.78 3.781-11.396 7.853-3.187 2.31-6.716 4.907-10.23 7.514zm-135.18 32.922c1.585 8.054 6.436 16.816 13.974 25.434 7.904 9.037 18.725 17.865 31.82 25.537 1.19-1.45 2.205-2.98 3.003-4.613 3.82-7.813 13.669-13.99 23.02-19.858 6.368-3.995 12.492-7.838 15.847-11.691 4.342-4.987 7.969-10.792 10.038-16.762 1.498-4.32 2.177-8.722 1.705-12.94-15.986 3.338-38.349 6.331-59.57 9.17-14.645 1.96-28.736 3.846-39.837 5.723zm196.792 101.546c-.814-.815-1.94-1.319-3.18-1.319-1.243 0-2.368.504-3.182 1.32-.814.814-1.317 1.94-1.317 3.185 0 1.244.503 2.37 1.317 3.185s1.939 1.32 3.181 1.32 2.367-.505 3.18-1.32c.815-.814 1.318-1.94 1.318-3.185 0-1.244-.503-2.371-1.317-3.186zm-3.18-6.36c2.5 0 4.778.966 6.478 2.546l.631-.381c7.853-4.743 25.687-15.515 42.452-15.165 3.87.08 8.424.766 13.29 1.833l.005-4.646c.018-15.807.034-30.3.52-40.86.669-14.503-.864-33.252-3.253-50.623-.388-2.822-.798-5.604-1.225-8.324-4.906-1.406-9.346-2.532-13.106-3.244-6.443-1.218-12.365-2.585-17.886-3.859-13.786-3.181-25.003-5.77-34.21-3.72-6.962 1.548-17.008 2.4-27.783 2.858-10.348.44-21.446.518-31.095.509-3.09 2.312-5.97 4.48-8.36 6.29-2.63 1.989-8.224 3.852-15.74 5.62.676 5.16-.096 10.487-1.89 15.662-2.293 6.617-6.267 12.996-11 18.434-3.82 4.387-10.267 8.432-16.97 12.637-8.755 5.494-17.976 11.279-21.17 17.81-.857 1.752-1.899 3.387-3.093 4.927 20.905 11.764 34.528 17.828 39.49 19.919.208-.256.428-.5.66-.734 1.726-1.727 4.108-2.795 6.74-2.795 2.632 0 5.015 1.068 6.74 2.795 1.632 1.634 2.674 3.859 2.782 6.326 7.53.13 13.724-1.011 19.656-2.105 7.569-1.395 14.73-2.717 23.772-1.449 5.58.782 11.345 2.14 16.242 3.63 5.61 1.707 10.167 3.637 12.146 5.136 2.667 2.018 4.6 3.63 6.562 5.631 1.594 1.627 3.167 3.478 5.143 5.995 1.076-.42 2.246-.652 3.471-.652zm-3.55 18.407c-3.392 5.435-11.071 18.352-14.96 29.832 17.873 2.386 33.402 15.115 46.608 25.942 5.025 4.12 9.703 7.955 13.933 10.735 2.229 1.465 4.786 3.142 7.6 4.96 4.545-4.025 7.717-8.484 8.761-13.393 3.958-18.595 4.378-51.95 4.45-82.51-4.958-1.137-9.564-1.873-13.38-1.953-15.295-.319-32.28 9.94-39.758 14.457l-.568.343c.257.863.394 1.779.394 2.726 0 2.635-1.067 5.021-2.792 6.749-1.724 1.728-4.107 2.796-6.739 2.796-1.254 0-2.452-.243-3.549-.684zm-20.114 29.41c4.013-12.523 12.63-26.911 16.106-32.454-1.238-1.61-1.974-3.628-1.974-5.817 0-2.224.759-4.27 2.032-5.893-1.819-2.313-3.262-4.01-4.693-5.47-1.74-1.775-3.519-3.253-6.01-5.14-1.556-1.177-5.523-2.81-10.575-4.348-4.645-1.413-10.134-2.705-15.475-3.453-8.258-1.157-15.027.09-22.18 1.41-6.464 1.192-13.229 2.439-21.716 2.165-.438.8-.987 1.53-1.626 2.171-1.198 1.2-2.714 2.081-4.41 2.509-.639 7.017-3.07 30.906-8.2 51.604 2.513.393 5.12.948 7.815 1.697 10.392 2.89 25.207 2.208 40.701 1.494 10.084-.465 20.451-.943 30.205-.475zm-8.344 70.419c-.814-.816-1.939-1.32-3.181-1.32-1.243 0-2.367.504-3.182 1.32-.813.814-1.317 1.941-1.317 3.185s.504 2.371 1.317 3.186c.815.815 1.94 1.319 3.182 1.319s2.367-.504 3.18-1.32c.814-.814 1.318-1.941 1.318-3.185s-.504-2.37-1.317-3.185zm-3.686-6.347c.886-6.978 3.106-20.906 5.533-34.228 1.735-9.528 3.574-18.735 5.104-24.871-9.229-.37-19.04.082-28.595.522-15.897.733-31.096 1.434-42.255-1.67-2.683-.747-5.273-1.285-7.76-1.651-2.128 7.661-4.658 14.624-7.644 19.769-4.662 8.03-16.052 17.808-29.977 27.303 3.652 4.426 12.905 14.666 22.554 17.61 12.06 3.681 60.911 4.131 74.35 4.223.444-1.62 1.302-3.07 2.455-4.224 1.614-1.616 3.804-2.656 6.235-2.783zm9.58 6.61c10.313-1.915 50.399-10.106 71.586-25.32-2.266-1.47-4.343-2.833-6.193-4.05-4.475-2.94-9.244-6.85-14.366-11.05-12.896-10.572-28.101-23.036-44.869-24.952-1.56 6.027-3.474 15.557-5.27 25.42-2.463 13.517-4.712 27.685-5.543 34.416.859.45 1.64 1.029 2.32 1.709 1.057 1.059 1.867 2.366 2.336 3.827zM-48.514 115.452c11.41 2.158 28.58 7.92 46.19 13.83 17.69 5.937 35.83 12.024 48.724 14.658 24.386 4.978 69.238.653 73.355.24 5.794-2.26 10.923-3.556 13.767-4.18-1.478-11.731-4.894-34.464-8.703-54.67-2.543-13.49-5.254-25.839-7.66-32.976-1.368.043-2.546.162-3.487.416-6.618 1.784-52.245 11.751-52.377 11.78l-.165.036-.218.013c-.366.022-127.345 7.612-132.574 8.709l-1.022-4.923c5.472-1.147 127.496-8.46 133.082-8.794 2.966-.648 45.725-9.999 51.976-11.684.948-.256 1.995-.41 3.136-.498-2.716-9.98-1.58-21.481-.284-34.571.955-9.655 1.998-20.2 1.595-31.483l5.014-.178c.415 11.63-.645 22.344-1.616 32.153-1.302 13.17-2.438 24.658.504 34.011.734.017 1.492.04 2.275.064 6.778.207 15.479.472 24.421-2.716 14.68-5.232 138.07-72.85 138.425-73.044l2.398 4.41c-.356.196-124.137 68.027-139.152 73.38-9.797 3.491-19.034 3.21-26.23 2.99l-.407-.012c2.353 7.559 4.908 19.302 7.3 31.992 3.808 20.197 7.217 42.82 8.72 54.676 10.925-1.839 25.128-3.74 39.885-5.714 33.838-4.528 70.637-9.452 77.853-14.912 6.699-5.069 17.205-12.94 25.42-18.896 5.78-4.19 10.503-7.478 12.144-8.285 2.136-1.05 20.565-8.17 36.712-14.178 11.794-4.388 22.443-8.208 24.841-8.71 1.127-.237 7.2-.735 16.176-1.38-6.549-9.278-14.712-20.058-21.937-29.597-3.717-4.91-7.197-9.503-9.791-13.001-13.549-18.265-15.083-56.722-15.087-56.832l5.014-.217c.004.107 1.48 37.039 14.103 54.056 3.049 4.11 6.29 8.39 9.752 12.961 7.887 10.414 16.878 22.287 23.77 32.22 37.882-2.628 111.023-7.001 111.3-7.018l.296 5.02c-.271.017-70.078 4.19-108.334 6.796 3.044 4.586 5.433 8.548 6.766 11.463 2.577 5.63 5.977 19.888 8.772 36.846 8.977 2.672 19.192 6.1 29.56 9.58 17.69 5.936 35.83 12.023 48.724 14.657l-1.003 4.922c-13.2-2.695-31.483-8.831-49.313-14.815-9.451-3.172-18.774-6.3-27.096-8.834.304 2.001.598 4.03.88 6.078 2.423 17.621 3.976 36.684 3.292 51.509-.487 10.566-.503 24.953-.52 40.644l-.007 5.847c5.472 1.413 11.166 3.19 16.602 5.048 12.024 4.11 22.802 8.604 27.037 10.376 8.049 3.369 21.507 9.202 21.546 9.218l-1.986 4.608c-.036-.016-12.675-5.491-21.487-9.18-4.195-1.755-14.872-6.208-26.722-10.258-4.93-1.683-10.06-3.3-15.001-4.622-.081 30.49-.55 63.534-4.544 82.302-1.18 5.545-4.612 10.548-9.492 15.032 6.495 4.13 14.006 8.74 21.843 13.124 13.238 7.407 27.5 14.246 39.573 17.206 24.508 6.01 30.176 7.223 30.192 7.226l-1.042 4.923c-.016-.004-5.514-1.18-30.33-7.266-12.59-3.087-27.269-10.11-40.831-17.698-8.565-4.793-16.648-9.78-23.471-14.14-22.754 17.22-66.17 25.903-75.651 27.64-.216.94-.571 1.826-1.042 2.637 19.066 12.63 23.76 29.9 23.775 29.951l.075.268.014.303c.004.107 1.48 37.04 14.103 54.057l-4.03 2.993c-12.85-17.323-14.892-52.802-15.072-56.512-.634-2.069-5.602-16.676-22.55-27.467-1.355.742-2.909 1.163-4.561 1.163h-.072l-8.04 32.849-.265 1.08-.974.534c-.356.195-124.137 68.027-139.152 73.379l-1.67-4.745c13.94-4.969 125.903-66.19 137.45-72.51l7.819-31.946c-.67-.403-1.286-.886-1.836-1.437-1.16-1.161-2.022-2.62-2.463-4.253-13.557-.093-63.06-.552-75.797-4.44-11.203-3.419-21.568-15.048-25.3-19.608-2.898 1.898-5.881 3.776-8.917 5.617-21.324 12.932-45.347 24.183-59.984 27.86 1.858 12.17 3.016 25.22 3.443 37.205.415 11.63-.645 22.344-1.616 32.153-1.378 13.929-2.57 25.977 1.054 35.608l-4.7 1.771c-4.033-10.721-2.788-23.314-1.347-37.872.955-9.654 1.998-20.199 1.595-31.482-.416-11.694-1.543-24.433-3.352-36.344-26.546 4.77-63.94.703-64.05.69l-.162-.017-.105-.021c-.016-.004-5.515-1.18-30.33-7.266-12.59-3.087-27.269-10.11-40.831-17.698-13.547-7.58-25.887-15.65-33.942-20.944l2.752-4.213c8.05 5.291 20.374 13.35 33.628 20.766 13.238 7.407 27.5 14.246 39.573 17.206 22.72 5.572 29.247 7.02 30.092 7.205 2.064.216 23.74 2.41 44.965 1.259l13.083-21.972c-1.72-5.779-3.679-10.674-5.867-14.243-1.21-1.972-2.67-4.2-4.209-6.549-8.74-13.333-20.016-30.54-21.24-57.663-2.978-.237-6.496-.89-10.234-1.79-11.234-2.704-24.784-7.572-30.652-9.802-5.852-2.225-9.471-3.86-13.329-5.602-2.456-1.11-5.012-2.264-8.266-3.626-4.195-1.756-14.872-6.209-26.723-10.259-11.753-4.015-24.648-7.643-33.39-7.826-15.295-.319-32.28 9.94-39.758 14.457-.934.564-1.714 1.035-2.535 1.502l-2.477-4.37c.466-.266 1.353-.802 2.417-1.444 7.853-4.743 25.687-15.515 42.452-15.165 9.378.196 22.78 3.94 34.903 8.082 12.025 4.11 22.803 8.604 27.038 10.376 3.348 1.4 5.925 2.566 8.404 3.685 3.813 1.723 7.39 3.34 13.034 5.484 5.793 2.203 19.139 7 30.042 9.625 3.37.812 6.468 1.423 8.948 1.687-.194-16.221 1.195-35.226 3.736-52.764 2.573-17.766 6.337-34.102 10.85-44.648 3.269-7.638 9.464-13.345 16.219-17.554-16.34 1.123-44.337 2.26-62.108-1.368-13.2-2.695-31.483-8.831-49.313-14.815-17.436-5.851-34.435-11.556-45.522-13.654l.924-4.941z" mask="url(#pj029s0ofh)"/>
                                        </g>
                                        <path fill="#FFF" d="M130.848 184.383L78.002 201.373 78.003 201.374 51.69 210.369 51.207 208.94 77.519 199.944 77.531 199.941 130.388 182.947z" transform="translate(-50.928 -204)"/>
                                        <path fill="#FFF" d="M91.823 245.671l4.13-.916c6.997-1.551 20.062-4.447 22.702-5.132 2.947-.765 7.148-8.743 8.44-11.198l.142-.269c.895-1.692-15.532-21.61-15.58-21.666l-.105-.128-.041-.155-7.03-26.062 1.457-.39 6.987 25.906c1.424 1.732 16.954 20.72 15.645 23.198l-.142.269c-1.366 2.593-5.803 11.021-9.395 11.954-2.647.687-15.742 3.59-22.754 5.143-1.896.42-3.32.736-4.125.917l-.33-1.47zM213.396 237.552L196.459 209.821 197.745 209.035 214.682 236.766zM114.967 372.865c-.035-.018-12.038-6.13-16.026-9.995-3.778-3.661-10.803-12.204-11.347-12.866l-24.045-22.706-.006-.006c-.03-.03-10.725-10.359-11.707-11.67-.06-.08-.113-.161-.159-.243-.482-.86-.913-2.933-.811-5.06.105-2.176.757-4.467 2.452-5.74.17-.127.34-.24.513-.337 1.907-1.072 3.815-1.675 5.704-1.606 1.916.07 3.778.823 5.556 2.466 3.294 3.045 11.095 9.607 11.118 9.626l.047.041 24.08 23.865-1.061 1.069-24.07-23.853c-.57-.48-8.007-6.747-11.135-9.638-1.494-1.381-3.03-2.014-4.589-2.07-1.587-.058-3.235.474-4.913 1.417-.13.073-.246.148-.347.225-1.27.953-1.764 2.81-1.851 4.607-.089 1.848.245 3.575.623 4.25.022.04.038.066.046.078.896 1.196 11.295 11.24 11.542 11.48l24.075 22.734.03.028.035.043c.021.026 7.395 9.03 11.27 12.785 3.813 3.696 15.626 9.712 15.66 9.729l-.684 1.347zM123.602 206.943L139.067 197.025 158.322 176.902 159.408 177.949 140.09 198.136 140.028 198.201 139.954 198.248 124.415 208.214z" transform="translate(-50.928 -204)"/>
                                        <path fill="#FFF" d="M135.1 250.679L114.601 230.271 115.663 229.202 136.161 249.61z" transform="translate(-50.928 -204)"/>
                                        <path fill="#FFF" d="M111.215 232.466L118.262 225.725 119.3 226.817 112.254 233.559zM117.447 212.499L94.129 231.022 93.191 229.841 116.51 211.318zM149.66 213.53c.025-.017 8.636-6.254 10.109-6.857.2-.082.634-.223 1.246-.408.646-.196 1.555-.462 2.64-.775 6.085-1.755 17.925-5.026 19.452-5.448L207.32 179.7l.062-.052.077-.04 30.656-15.82.69 1.34-30.58 15.781-24.273 20.394-.121.103-.164.045c-.037.01-12.761 3.522-19.599 5.494-1.034.297-1.93.56-2.617.768-.613.185-1.006.31-1.116.355-1.295.53-9.772 6.669-9.796 6.687l-.88-1.223z" transform="translate(-50.928 -204)"/>
                                        <path fill="#FFF" d="M145.3 178.708c.014.013 4.85 4.604 6.441 6.182 1.648 1.636 12.74 20.893 12.773 20.949l-1.304.756c-.031-.055-11.03-19.145-12.53-20.636-1.56-1.547-6.404-6.145-6.418-6.158l1.038-1.093zM174.784 253.453L163.962 259.932 163.189 258.639 174.011 252.16zM168.747 243.697L159.843 248.483 159.129 247.154 168.033 242.368z" transform="translate(-50.928 -204)"/>
                                        <path fill="#FFF" d="M158.067 243.921L162.157 251.23 160.841 251.968 156.752 244.659zM189.408 271.368L179.5 256.69 180.75 255.845 190.658 270.524zM203.359 243.221L208.138 251.344 206.84 252.106 202.061 243.983z" transform="translate(-50.928 -204)"/>
                                        <path fill="#FFF" d="M200.212 255.093L230.977 238.459 231.69 239.788 200.926 256.422zM125.716 257.207c-.01-.013-3.676-4.666-4.256-5.036-.316-.202-1.558-.419-3.214-.406-1.215.01-2.612.16-3.974.557-3.507 1.022-22.807 6.407-22.863 6.422l-.4-1.453c.055-.015 19.43-5.422 22.844-6.416 1.507-.44 3.046-.605 4.381-.616 1.945-.015 3.54.327 4.033.642.804.512 4.618 5.36 4.629 5.373l-1.18.933zM48.495 155.027L60.17 193.55 75.957 227.052 74.595 227.695 58.788 194.152 58.769 194.111 58.749 194.049 47.056 155.464z" transform="translate(-50.928 -204)"/>
                                        <path fill="#FFF" d="M66.553 229.418L74.957 226.503 74.989 226.491 85.523 223.39 85.948 224.837 75.414 227.938 75.414 227.937 67.043 230.842zM171.806 203.737L182.392 220.269 181.124 221.085 170.537 204.552zM172.666 225.676L178.59 236.09 177.281 236.834 171.357 226.42zM50.789 339.821c.034-.044-1.518-2.092-3.32-4.73-2.68-3.926-6.168-8.64-7.166-9.712-.886-.95-2.245-7.426-3.496-14.425-1.247-6.972-2.393-14.353-2.847-17.329-.13-.858-.201-1.337-.201-1.339l1.48-.295c0 .001.077.519.213 1.41.462 3.026 1.621 10.498 2.835 17.287 1.21 6.765 2.466 12.964 3.118 13.663 1.037 1.112 4.594 5.915 7.309 9.89 2.144 3.139 3.725 5.916 3.266 6.508l-1.191-.928zM50.195 289.044L54.224 305.229 52.762 305.589 48.733 289.404zM67.483 308.816c.003-.028 1.135-9.867 2.262-12.19 1.09-2.247 7.387-13.265 7.406-13.297l1.31.75c-.019.032-6.31 11.038-7.36 13.202-1.012 2.087-2.117 11.68-2.12 11.707l-1.498-.172zM193.302 248.845c-.016-.033-5.45-11.719-6.01-12.985-.325-.732-.46-1.481-.187-2.239.261-.722.882-1.39 2.055-1.958 1.693-.82 4.13-1.717 5.453-2.205l.59-.216c.74-.278 1.414-.205 2.058.205.54.345 1.031.937 1.501 1.77.782 1.385 6.555 10.842 6.571 10.87l-1.285.785c-.017-.026-5.742-9.404-6.596-10.917-.347-.615-.675-1.032-1-1.238-.22-.14-.458-.163-.725-.063-.398.15-.49.183-.595.222-1.303.48-3.705 1.365-5.317 2.145-.777.377-1.162.75-1.294 1.114-.119.33-.034.714.144 1.116.445 1.002 5.99 12.922 6.005 12.956l-1.368.638z" transform="translate(-50.928 -204)"/>
                                        <g transform="translate(-50.928 -204) translate(11.614 253.12)">
                                            <mask id="s9hupfl23j" fill="#fff">
                                                <use xlink:href="#h3vktx6w9i"/>
                                            </mask>
                                            <path fill="#FFF" d="M75.225 1.169L59.365 22.191 59.18 22.437 58.876 22.484 -19.878 34.531 -20.102 33.037 58.347 21.036 74.022 0.259z" mask="url(#s9hupfl23j)"/>
                                        </g>
                                        <path fill="#FFF" d="M175.195 279.693c-.02-.033-7.151-11.767-8.077-13.003-.26-.345-.69-.486-1.169-.492-.733-.01-1.56.27-2.196.633-.937.536-6.662 3.712-6.678 3.72l-.73-1.317c.014-.008 4.954-2.738 6.659-3.714.833-.477 1.943-.843 2.963-.829.92.014 1.776.323 2.354 1.096.961 1.283 8.14 13.093 8.16 13.126l-1.286.78zM126.919 256.303L135.46 268.291 134.234 269.165 125.692 257.177zM63.759 241.21c-1.833-1.836-4.365-2.972-7.163-2.972-2.797 0-5.33 1.136-7.162 2.971-1.833 1.836-2.967 4.372-2.967 7.173s1.134 5.338 2.967 7.173c1.833 1.836 4.365 2.97 7.162 2.97 2.798 0 5.33-1.134 7.163-2.97 1.833-1.835 2.967-4.372 2.967-7.173s-1.134-5.337-2.967-7.173m-7.163-4.483c3.214 0 6.124 1.305 8.23 3.414 2.107 2.11 3.41 5.024 3.41 8.242 0 3.219-1.304 6.132-3.41 8.242-2.106 2.109-5.016 3.414-8.23 3.414-3.214 0-6.123-1.305-8.23-3.414-2.106-2.11-3.409-5.023-3.409-8.242 0-3.218 1.303-6.133 3.41-8.242 2.106-2.11 5.015-3.414 8.23-3.414" transform="translate(-50.928 -204)"/>
                                        <path fill="#FFF" d="M76.942 266.247L64.835 256.203 65.815 255.018 77.922 265.061zM30.432 219.462c2.49.09 5.585.889 8.44 1.937 3.359 1.232 6.43 2.832 7.82 4.046 2.577 2.249 7.156 11.933 7.17 11.96l-1.363.65c-.013-.027-4.467-9.442-6.798-11.477-1.26-1.099-4.144-2.586-7.348-3.762-2.73-1.002-5.661-1.764-7.974-1.848l.053-1.506zM231.296 262.648c-.046.03-15.866 10.571-22.113 12.87-6.192 2.278-24.014 7.933-24.066 7.95l-.454-1.441c.051-.016 17.862-5.669 24-7.927 6.084-2.238 21.756-12.68 21.802-12.71l.831 1.258z" transform="translate(-50.928 -204)"/>
                                    </g>
                                </g>
                            </g>
                            <path fill="#24AA98" fill-opacity=".1" stroke="#24AA98" stroke-width="3" d="M73.858 28.803c18.61-2.066 30.899-7.62 41.99 6.695 11.091 14.315-1.233 36.659-22.809 37.688-22.477 1.072-34.58 1.995-44.967-3.502-10.386-5.497-19.084-15.156-3.844-28.673 15.24-13.517 11.02-10.141 29.63-12.208z" mask="url(#3p5fhf7a1c)"/>
                        </g>
                    </g>
                </g>
            </g>
        </g>
    </g>
</svg>
