<svg xmlns="http://www.w3.org/2000/svg" xmlns:xlink="http://www.w3.org/1999/xlink" width="156" height="100" viewBox="0 0 156 100">
    <defs>
        <path id="6mmlbljlgd" d="M0.071 0.473L113.486 0.473 113.486 151.379 0.071 151.379z"/>
        <path id="if83qsvyle" d="M0.071 0.271L608.799 0.271 608.799 609.879 0.071 609.879z"/>
        <path id="7hk2mja3jg" d="M0.071 0.271L608.799 0.271 608.799 609.879 0.071 609.879z"/>
        <rect id="kd9adycf9a" width="156" height="100" x="0" y="0" rx="8"/>
        <rect id="dmemzqfdlb" width="140" height="84" x="8.034" y="8" rx="8"/>
    </defs>
    <g fill="none" fill-rule="evenodd">
        <g>
            <g>
                <g>
                    <g>
                        <g transform="translate(-16 -977) translate(0 162) translate(0 531) translate(0 200) translate(16 84)">
                            <rect width="148" height="92" x="4" y="4" stroke="#FFF" stroke-width="8" rx="8"/>
                            <mask id="vbjt7il7mc" fill="#fff">
                                <use xlink:href="#dmemzqfdlb"/>
                            </mask>
                            <use fill="#FFF" xlink:href="#dmemzqfdlb"/>
                            <g mask="url(#vbjt7il7mc)">
                                <g>
                                    <path fill="#EFEFED" d="M16.103 625.89L625.011 625.89 625.011 16.126 16.103 16.126z" transform="translate(-50.928 -204)"/>
                                    <g>
                                        <path fill="#C1EBB3" d="M94.403 226.894L67.947 220.793 49.238 162.872 53.355 160.383 72.637 156.082zM128.097 341.108L116.726 302.971 136.322 298.401 132.206 338.544zM176.368 295.223L212.736 339.71 229.02 330.391 197.808 280.825zM6.671 353.158c1.42 1.072 78.75 33.876 78.75 33.876l43.443 10.359 1.14-29.401-18.634-21.818-35.254-44.625-9.664-12.724-15.435-42.339-49.48 8.603 5.134 98.069z" transform="translate(-50.928 -204)"/>
                                        <g transform="translate(-50.928 -204) translate(16.518 246.013)"/>
                                        <g transform="translate(-50.928 -204) translate(16.518 15.903)">
                                            <mask id="oyu9vudfkf" fill="#fff">
                                                <use xlink:href="#if83qsvyle"/>
                                            </mask>
                                            <path fill="#FFF" d="M649.393 231.865l-75.003 15.007-6.496 1.888-1.39-4.802 6.693-1.947.205-.058 75.012-15.008.979 4.92zm-211.878 421.73c-1.086-1.384-2.058-2.555-3.098-3.808-8.594-10.36-21.289-25.66-19.979-50.915 1.284-24.743-6.014-23.958-6.034-23.956l-.333-4.998c.037-.002 12.938-1.245 11.358 29.21-1.21 23.317 10.737 37.715 18.824 47.464 1.237 1.489 2.392 2.882 3.196 3.907l-3.934 3.096zm13.42-589.76c-5.388-8.409-10.385-15.98-13.42-19.848-1.086-1.384-2.058-2.556-3.098-3.808-3.277-3.952-7.152-8.623-10.619-14.29-7.859 2.607-37.49 12.476-41.698 14.433-2.089.97-3.45 1.822-3.995 2.647-.255.385-.172.929.279 1.71 1.59 2.75 9.586 22.922 14.52 35.368.893 2.251 1.67 4.213 2.419 6.084 5.53-2.213 11.675-4.646 17.929-7.12 13.97-5.531 28.483-11.277 37.682-15.175zm-286.73-23.953l19.65-13.028.185-.11c.049-.026 4.126-2.249 10.457-5.707-21.875-20.082-68.792-62.562-75.01-63.31-6.738-.808-25.33 3.304-32.802 5.057l27.699 50.15 2.712 4.934.014-.007 18.118 37.704c8.7-3.602 27.519-14.813 28.976-15.683zM78.883 224.218l-40.259 8.055c3.74 10.717 12.71 36.134 15.742 42.205 1.097 2.199 6.592 9.568 13.857 18.945l-.162-.624c.095-.024 12.914-3.386 28.82-7.33l-17.998-61.25zm7.81 348.171l13.19 23.881 15.258-28.955c-8.382.54-22.24 3.619-28.447 5.074zm-47.657-35.333L55.643 524.7l-1.5-53.846-24.57 2.796 9.464 63.407zm50.172-41.898L59.164 471.78l1.358 48.74 28.687-25.362zm45.359 35.29l-41.347-32.17-31.889 28.194 22.85 41.368c5.918-1.41 24.462-5.643 33.636-5.603l16.75-31.789zM296.03 280.003c-14.493 2.989-31.956 4.442-32.02 4.446l-.41-4.998c.06-.005 16.324-1.358 30.164-4.094l-34.72-71.18-55.44 23.247c-1.969 2.304-10.734 12.485-12.947 13.778-1.767 1.032-12.101 4.057-17.484 5.596 23.522 36.72 60.607 94.832 61.902 98.203.52 1.351.915 1.95 1.282 1.997.703.092 1.965-.495 3.756-1.499l1.08-.605h.01c8.416-4.715 53.052-29.721 67.645-38.614l-12.818-26.277zm205.125 304.093c7.327-3.944 19.89-12.52 32.679-21.79 19.433-14.085 39.207-29.62 41.939-32.943 4.308-5.238 11.186-26.214 12.317-29.72-.268-2.876-1.773-17.858-4.376-20.885-3.239-3.768-27.083-21.367-27.152-21.417l-.25-.185-.19-.227-47.047-56.078c-2.899 5.93-9.269 18.65-17.087 32.364-2.305 4.045-6.312 9.771-11.19 16.28 3.566 5.202 6.59 10.693 9.466 17.548 3.108 7.408 6.065 16.48 9.384 28.62 4.066 14.877 2.911 41.926 2.001 63.22-.462 10.808-.859 20.094-.494 25.213zM481.4 360.076l27.857 33.205 55.655-22.33 1.86 4.645-50.9 20.423c13.529 4.326 43.567 13.82 48.72 14.483 6.404.825 12.802-1.02 12.82-1.026l.215-.048 55.537-10.817.94 4.92-55.405 10.79c-.824.228-7.726 2.043-14.734 1.14-5.338-.688-33.688-9.599-47.975-14.155l43.778 52.182c2.39 1.768 21.427 15.892 26.78 21.006l80.124-9.114.548 4.978-77.801 8.851c2.577 7.263 3.702 20.437 3.706 20.483l.042.482-.16.498c-.023.073-8.055 25.394-13.378 31.867-2.964 3.604-23.172 19.556-42.859 33.825-11.574 8.388-23.028 16.245-30.795 20.754 6.631 1.764 12.807 3.223 17.249 3.9 7.536 1.148 19.957.664 31.732-.587 13.043-1.388 25.12-3.66 28.68-5.651l81.78-60.858 2.975 4.017-81.916 60.96-.124.091-.111.066c-4 2.335-16.99 4.89-30.755 6.353-12.154 1.293-25.05 1.78-33.005.567-5.033-.766-12.19-2.498-19.73-4.543.268 1.027.551 2.124.848 3.275 2.629 10.167 6.379 24.673 13.6 42.194l-4.619 1.9c-7.35-17.834-11.151-32.535-13.815-42.84-.565-2.185-1.077-4.163-1.605-6.078-15.742-4.456-31.304-9.563-31.376-9.585l-.23-.076-.2-.11-52.553-29.056 2.406-4.39 52.354 28.943c1.854.606 14.916 4.853 28.627 8.793-.385-5.68.011-14.972.47-25.715.897-20.965 2.035-47.596-1.825-61.712-3.233-11.828-6.127-20.7-9.187-27.992-2.489-5.933-5.075-10.77-8.04-15.278-18.112 23.644-44.649 54.45-44.752 54.57l-3.777-3.274c.137-.16 48-55.72 58.567-74.256 8.802-15.44 15.761-29.632 17.912-34.092l-27.991-33.363 3.836-3.214zm-58.777 51.302c.567-6.575 4.192-25.307 12.741-44.285 5.305-11.774 12.52-23.69 22.111-32.967l3.465 3.606c-9.064 8.77-15.934 20.14-21.015 31.42-8.272 18.36-11.767 36.357-12.31 42.656l-4.992-.43zm-245.499.28l26.107-15.37c-21.54-3.19-89.028 1.763-89.243 1.778l-.353-4.998c.236-.017 79.615-5.852 95.8-.434l118.42-69.72 2.524 4.313-115.854 68.21c7.933 5.629 10.455 13.63 12.486 20.073.412 1.307.802 2.55 1.137 3.473l-4.698 1.706c-.463-1.282-.83-2.445-1.215-3.67-1.954-6.198-4.424-14.035-12.544-18.736l-30.042 17.687-2.525-4.312zm56.32 162.43l-.936 10.563.005.001c-.005.064-.872 12.34-1.531 26.017 13.098-7.192 25.531-14.05 32.086-17.749l-29.625-18.832zm-7.598 39.4c.137-3.04.287-6.047.44-8.909l-87.724-70.984-15.741 29.875c12.981 7.133 56.508 46.488 76.307 64.645 7.562-4.133 17.136-9.372 26.718-14.628zm-.471 27.737c-.241-5.419-.086-13.512.23-21.904-8.07 4.424-16 8.762-22.591 12.366 3.769 3.471 6.03 5.576 6.068 5.61l-3.406 3.666c-.042-.04-2.796-2.603-7.294-6.745-7.178 3.922-11.901 6.497-11.954 6.526l-2.388-4.39c.049-.028 4.126-2.25 10.457-5.709-20.883-19.17-64.565-58.732-73.905-62.945l-17.815 33.807 14.275 25.844-4.385 2.411L57.37 529.646l-79.624 59.253-2.975-4.018 59.711-44.435-9.884-66.232-47.439 5.397-.548-4.979 47.247-5.375-9.488-63.583-44.531 8.673-.94-4.92 143.448-27.938.94 4.92-94 18.308 9.547 63.974 25.168-2.863-.007-.304.773-.76 59.524-58.423 3.504 3.568-57.48 56.417 32.714 25.453 42.466-37.545 3.307 3.743L97.042 494.9l43.15 33.574.03.029 86.406 69.918c.475-8.171.89-14.058.894-14.102l.01-.05 1.168-13.195-65.708-41.768 2.683-4.234 102.242 64.992c7.158-4.91 13.317-14.976 15.694-19.194l-81.128-56.037 2.837-4.116 28.101 19.41 17.095-44.39 4.658 1.804-17.525 45.506 48.226 33.31c.716-5.43 1.739-14.603 1.507-21.235-.362-10.311 1.07-45.774 1.073-45.876l4.991.196c-.004.101-1.428 35.404-1.074 45.523.313 8.923-1.52 22.07-2.065 25.733l11.132 16.544 48.882-76.586c2.265-8.089 3.071-20.251 2.97-32.45-.13-15.563-1.74-31.075-3.689-38.296-.36-1.338-.66-2.967-.91-4.826-.17-1.262-.313-2.61-.435-4.03l-13.04-2.519c-7.601 3.947-69.677 36.121-79.754 39.587-4.305 1.48-11.098 3.155-18.378 4.75-10.892 2.384-22.956 4.605-29.24 5.69-5.067.874-12.21 1.29-19.37 1.331-7.811.044-15.65-.357-20.816-1.095-9.997-1.428-22.342-6.392-22.378-6.405l1.86-4.647c.033.014 11.808 4.748 21.223 6.092 4.98.712 12.546 1.1 20.091 1.056 6.864-.039 13.706-.436 18.548-1.272 6.213-1.073 18.165-3.273 29.026-5.651 7.1-1.555 13.698-3.18 17.81-4.593 9.675-3.327 69.966-34.557 78.773-39.128l2.77-14.442 4.912.94-2.527 13.178 10.15 1.961c-.386-7.818-.37-17.254-.356-25.925.02-11.259.037-21.196-.812-24.17-1.939-6.795-15.383-18.216-15.422-18.25l3.25-3.802c.04.035 14.63 12.419 16.987 20.68 1.026 3.595 1.009 13.885.988 25.542-.016 9.752-.034 20.487.546 28.829.145 2.08.324 3.977.546 5.626.216 1.613.478 3.03.793 4.2 2.033 7.534 3.713 23.562 3.845 39.55.107 12.79-.778 25.628-3.261 34.217l-2.398-.695 2.104 1.343-50.25 78.727 18.081 26.872-4.15 2.803-31.335-46.572c-3.239 5.475-10.025 15.7-17.9 20.323-4.609 2.706-21.275 11.902-38.455 21.33-.389 9.317-.615 18.578-.353 24.494l-4.99.216zm1.567-592.5c-.628-4.381-1.26-10.176-1.567-17.11-.241-5.417-.086-13.51.23-21.903-8.07 4.425-16 8.764-22.591 12.367 3.77 3.47 6.03 5.575 6.068 5.61l.108.1.097.116 17.655 20.82zm24.984 48.565c-12.262-20.471-21.83-36.573-22.892-38.362l-23.465-27.674c-.53-.491-3.156-2.932-7.187-6.645-6.547 3.578-11.05 6.034-11.824 6.456l-19.6 12.996-1.38-2.088 1.283 2.146c-.07.04-23.979 14.362-32.146 16.965-4.757 1.516-25.58 7.119-43.23 11.492-12.063 2.989-22.741 5.423-26.076 5.651-4.472.306-12.59-3.218-20.475-8.143-2.616-1.635-5.23-3.433-7.692-5.3L75.68 195.588c8.035-2.22 17.334-4.785 26.837-7.4-1.08-8.988-5.229-43.892-5.858-55.242-.734-13.223 6.26-49.174 6.28-49.278l4.912.94c-.02.103-6.899 35.48-6.2 48.063.196 3.556.756 9.554 1.462 16.358 17.595-4.39 113.12-28.321 119.833-32.231 6.273-3.652 23.267-15.502 28.98-19.507zm18.321 30.48c-5.365-8.89-10.733-17.821-15.741-26.175-6.013 4.213-22.696 15.831-29.054 19.534-7.372 4.292-106.04 28.994-121.809 32.926 1.37 12.758 3.042 26.852 3.755 32.789 26.424-7.265 53.025-14.523 57.289-15.482 5.359-1.205 26.043-6.318 42.472-10.793 9.92-2.701 18.134-5.119 20.043-6.167 4.77-2.62 34.825-21.47 43.045-26.633zm231.35-150.21c.554 1.94 1.233 4.564 2.001 7.54 2.629 10.167 6.379 24.673 13.6 42.194 1.067 2.59 2.108 5.007 3.112 7.255.582 1.302 1.16 2.563 1.73 3.78 6.772-5.026 13.515-9.714 17.505-12.127 9.118-5.518 25.08-6.377 25.127-6.379l.179-.01.134.01c.142.01 49.782 3.624 55.489 6.974 3.869 2.272 7.137 7.443 11.074 13.674 2.047 3.238 4.286 6.781 6.858 10.3l-4.031 2.96c-2.648-3.62-4.95-7.265-7.054-10.594-3.582-5.669-6.556-10.374-9.373-12.028-4.534-2.662-50.327-6.068-53.174-6.278-1.667.106-15.083 1.087-22.645 5.662-4.54 2.748-12.81 8.569-20.528 14.425-6.653 5.048-12.856 10.085-15.828 13.136-5.782 5.934-20.281 45.443-22.492 51.527 6.422 18.78 13 47.686 13.025 47.796l-4.874 1.116c-.033-.142-11.336-49.807-18.214-59.795-2.786-4.044-7.547-11.589-12.816-19.935-2.195-3.478-4.478-7.096-6.74-10.652-9.36 4-24.252 9.895-38.57 15.564-18.044 7.142-35.177 13.925-38.74 15.888-1.155.635-2.085 1.303-2.797 1.994-1.02.987-1.591 2.012-1.737 3.045-.148 1.046.121 2.195.788 3.41.496.902 1.196 1.824 2.096 2.755 2.516 2.603 7.173 8.65 11.93 15.171 5.665 7.769 11.482 16.223 13.956 20.299 2.492 4.104 7.62 14.98 12.33 24.968 4.034 8.555 7.756 16.45 9.082 18.56.891 1.416 4.206 2.112 8.07 2.924 5.099 1.07 10.987 2.306 15.58 6.174 3.742 3.15 7.512 5.615 11.625 7.304 4.078 1.675 8.523 2.597 13.653 2.682 9.603.157 15.463 9.533 17.723 14.024 1.812-.739 3.596-1.397 5.41-1.984-1.002-5.755-3.87-21.483-6.562-29.149-3.292-9.37-19.777-34.26-19.824-34.33l4.169-2.765c.048.073 16.864 25.464 20.372 35.449 2.73 7.772 5.58 23.171 6.678 29.426 6.955-1.696 15.004-2.521 27.01-2.83 28.188-.723 40.405 1.21 40.44 1.215l-.763 4.96c-.035-.006-11.913-1.886-39.559-1.176-26.366.677-32.847 3.98-52.552 14.024l-2.205 1.124h-.01c-8.63 4.392-27.292 15.106-47.828 27.375 1.844 3.494 5.083 10.318 4.266 13.755-.596 2.506-7.613 9.036-15.631 16.498-8.575 7.98-18.353 17.078-21.685 22.039-3.484 5.187-7.124 11.853-10.207 19.342-2.635 6.4-4.861 13.404-6.233 20.598-3.031 15.891-8.893 57.133-8.91 57.252l-4.952-.706c.017-.12 5.896-41.48 8.949-57.488 1.434-7.519 3.766-14.85 6.527-21.557 3.22-7.82 7.027-14.792 10.676-20.225 3.672-5.466 13.666-14.765 22.429-22.92 7.422-6.907 13.917-12.952 14.164-13.99.46-1.94-2.07-7.071-3.668-10.04-6.791 4.078-13.723 8.288-20.51 12.46-23.238 14.292-44.723 28.132-52.913 34.78l-3.15-3.881c5.935-4.817 18.523-13.222 33.66-22.82-4.152-5.957-8.13-11.44-12.021-15.639-4.071-4.394-7.977-7.33-11.776-7.787-3.223-.387-8.84.896-15.32 2.872 3.35 18.183 5.086 34.08 4.411 41.794l-4.991-.43c.638-7.293-1.017-22.4-4.213-39.836-4.537 1.502-9.295 3.21-13.818 4.833-4.516 1.62-8.809 3.161-12.247 4.28-1.6.52-3.356 1.012-5.214 1.474l13.292 27.249-2.25 1.097 1.33 2.117c-12.148 7.638-60.916 34.96-69.785 39.928l.002.004-1.08.606c-2.683 1.504-4.822 2.352-6.848 2.086-2.36-.31-4.024-1.863-5.294-5.172-1.682-4.377-80.276-126.624-80.502-126.975l4.208-2.706c.065.103 6.743 10.488 16.233 25.296 4.522-1.278 16.252-4.639 17.775-5.53 1.799-1.05 12.022-13.11 12.052-13.143l.39-.461.558-.235 55.712-23.361-2.754-5.65 4.501-2.194 40.214 82.439c2.127-.507 4.127-1.05 5.914-1.633 3.728-1.212 7.813-2.678 12.11-4.221 4.755-1.705 9.76-3.501 14.565-5.073-1.389-7.115-3.011-14.522-4.822-21.869-5.416-21.981-12.474-43.316-19.874-54.567-6.713-10.205-20.08-32.047-33.864-54.851-8.36 5.25-38.433 24.111-43.224 26.742-2.318 1.273-10.909 3.832-21.14 6.618-16.305 4.441-37.192 9.597-42.686 10.831-5.967 1.342-57.066 15.408-88.693 24.145l5.295 18.015 48.008-9.606.978 4.92-47.567 9.517 17.936 61.037c24.315-5.973 53.284-12.622 55.668-11.03 3.518 2.348 42.142 49.927 42.254 50.064l-3.876 3.156c-.11-.135-38.233-47.093-41.157-49.045-1.29-.861-28.241 5.677-51.51 11.545l13.501 45.946-4.794 1.411-13.557-46.13c-12.368 3.137-23.017 5.905-27.136 6.98 17.966 23.026 43.77 54.808 43.88 54.944l-3.876 3.155c-.163-.202-57.166-70.406-61.233-78.552-3.215-6.44-12.6-33.079-16.219-43.453l-68.033 13.612-.978-4.92 72.14-14.434.142-.05.007.02 40.5-8.102-5.191-17.669c-11.927 3.296-20.093 5.56-20.177 5.583l-.666-2.41-2.387.734L14.509 93.28l4.776-1.47 33.818 110.022c3.233-.896 9.605-2.66 17.758-4.914L30.311 58.925c-1.856-1.778-3.45-3.534-4.665-5.194-2.646-3.62-4.95-7.265-7.054-10.594-3.58-5.669-6.555-10.374-9.372-12.028-4.673-2.743-53.176-6.278-53.316-6.287l.353-4.999c.143.01 49.781 3.624 55.489 6.974 3.869 2.272 7.137 7.443 11.074 13.674 2.046 3.238 4.286 6.781 6.858 10.3 3.48 4.758 10.638 10.523 17.899 15.06 7.1 4.435 14.099 7.63 17.5 7.398 3.021-.207 13.396-2.586 25.215-5.514 15.213-3.77 32.666-8.416 40.148-10.568l-17.625-36.68-2.816-5.123-54.014-97.793 4.385-2.411 23.802 43.096c6.447-1.537 27.949-6.443 35.903-5.487 7.619.916 57.456 45.953 79.053 65.758 7.563-4.134 17.136-9.372 26.718-14.628.67-14.938 1.671-29.099 1.676-29.168l4.99.333c-.004.064-.871 12.341-1.53 26.017 16.175-8.881 31.337-17.255 35.667-19.796 9.743-5.72 17.985-21.884 18.01-21.93l2.22 1.146 2.076-1.401 33.603 49.943-4.15 2.803-31.335-46.571c-3.239 5.473-10.025 15.7-17.9 20.322-4.61 2.707-21.277 11.903-38.455 21.33-.39 9.317-.615 18.578-.353 24.493.626 14.096 2.614 23.231 3.054 25.112 1.684 2.834 14.57 24.515 29.633 49.607 3.914-2.436 12.705-7.935 22.47-14.218l-31.578-45.802 4.11-2.841 31.668 45.93c15.296-9.918 31.582-20.924 34.724-24.77 5.205-6.372-22.145-43.703-22.223-43.81l4.033-2.941c.084.117 29.744 40.527 22.065 49.926-5.942 7.273-52.236 36.298-62.695 42.81 17.308 28.8 36.757 60.86 45.24 73.756 7.748 11.78 15.03 33.676 20.56 56.115 1.78 7.226 3.38 14.519 4.76 21.56 6.896-2.065 13.008-3.39 16.843-2.93 5.148.62 10.012 4.135 14.85 9.356 4.122 4.45 8.27 10.177 12.59 16.378 5.01-3.153 10.245-6.405 15.57-9.68 6.8-4.182 13.75-8.4 20.562-12.49-3.691-5.672-14.508-20.931-25.407-23.222-6.485-1.362-13.152-5.744-19.006-10.995-8.129-7.292-14.806-16.378-17.106-21.201-3.173-6.659-13.267-7.984-13.296-7.988l.666-4.959c.037.005 12.81 1.678 17.151 10.79 2.104 4.414 8.303 12.806 15.912 19.634 5.276 4.732 11.172 8.658 16.696 9.819 12.786 2.687 24.768 19.556 28.675 25.554 20.626-12.32 39.397-23.093 48.11-27.529l-.002-.004 2.205-1.123c4.927-2.511 9.057-4.616 12.873-6.374-1.877-3.718-6.384-10.911-13.223-11.023-5.787-.096-10.826-1.144-15.472-3.054-4.611-1.894-8.804-4.628-12.937-8.108-3.615-3.044-8.852-4.144-13.387-5.096-4.984-1.046-9.26-1.944-11.28-5.16-1.502-2.387-5.281-10.402-9.376-19.087-4.658-9.877-9.73-20.633-12.076-24.498-2.45-4.037-8.17-12.352-13.721-19.965-4.616-6.33-9.11-12.17-11.48-14.623-1.225-1.268-2.194-2.552-2.898-3.833-1.195-2.175-1.658-4.367-1.356-6.507.303-2.153 1.362-4.16 3.206-5.947 1.043-1.011 2.332-1.949 3.871-2.797 2.16-1.19 8.456-3.83 16.744-7.176-.614-1.545-1.466-3.697-2.422-6.107-4.873-12.295-12.773-32.222-14.207-34.7-1.517-2.625-1.524-4.858-.122-6.983 1.11-1.683 3.148-3.072 6.07-4.432 4.323-2.01 32.2-11.318 41.281-14.335-4.386-8.48-7.534-18.965-6.849-32.174l4.99.254c-1.208 23.317 10.738 37.716 18.825 47.465 1.237 1.489 2.392 2.881 3.196 3.907 3.203 4.081 8.487 12.108 14.13 20.929l.154-.07c10.956-4.926 16.079-13.001 20.679-20.253 2.496-3.936 4.85-7.648 7.928-10.695l3.523 3.567c-2.686 2.66-4.888 6.132-7.224 9.814-4.905 7.732-10.36 16.331-22.347 21.895 2.131 3.353 4.273 6.748 6.338 10.019 5.247 8.312 9.988 15.826 12.698 19.76 1.03 1.496 2.139 3.757 3.284 6.541 4.868-13.037 16.163-42.275 21.58-47.833 3.08-3.163 9.193-8.16 15.766-13.168-.702-1.485-1.438-3.085-2.209-4.809-1.019-2.282-2.078-4.743-3.17-7.394-7.35-17.835-11.151-32.535-13.815-42.84-.697-2.7-1.315-5.082-1.982-7.42l4.815-1.373z" mask="url(#oyu9vudfkf)"/>
                                        </g>
                                        <g transform="translate(-50.928 -204) translate(16.518 15.903)">
                                            <mask id="vx22oucl5h" fill="#fff">
                                                <use xlink:href="#7hk2mja3jg"/>
                                            </mask>
                                            <path fill="#FFF" d="M318.691 410.619c-5.169-.327-9.97-.16-14.357.304-9.216.972-16.641 3.25-21.838 4.984-4.47 1.492-15.213 2.652-27.677 3.997-15.496 1.673-33.742 3.643-44.488 6.601 21.046 12.203 49.406 38.911 57.24 46.452 19.319-13.07 35.042-26.393 41.23-37.052 3.819-6.578 7.098-15.444 9.89-25.286zm-157.218 86.07c1.677 5.983 3.18 12.492 4.508 19.332.434 2.238.85 4.515 1.248 6.82 20.173-5.178 53.24-20.736 82.769-38.645 3.902-2.366 7.738-4.772 11.47-7.196-9.787-9.362-40.036-37.507-59.422-46.846-11.952 9.807-36.422 58.219-40.573 66.534zm-44.975-110.627c2.148 35.386 17.223 58.386 28.956 76.287 2.124 3.242 4.14 6.317 6.098 9.51 2.497 4.071 4.785 9.185 6.862 15.076 7.72-15.016 25.083-47.544 36.75-59.947-7.907-3.83-16.067-8.599-24.873-13.747-15.514-9.07-33.057-19.325-53.793-27.18zm43.739 138.282c-.405-2.36-.83-4.69-1.275-6.979-.799-4.118-1.66-8.103-2.581-11.906l-12.515 21.017c5.643-.497 11.165-1.19 16.37-2.132zm180.31-211.014c-1.157-1.16-2.757-1.876-4.524-1.876s-3.367.717-4.523 1.876c-1.159 1.159-1.875 2.761-1.875 4.53 0 1.77.716 3.372 1.875 4.531 1.156 1.159 2.756 1.876 4.523 1.876s3.367-.717 4.524-1.876c1.157-1.159 1.873-2.76 1.873-4.53 0-1.77-.716-3.372-1.873-4.531zm-76.123-26.921c-8.33 8.03-19.627 14.172-30.881 20.29-4.247 2.309-8.488 4.614-12.733 7.133-9.085 5.392-30.265 20.379-50.985 35.04-19.009 13.453-37.635 26.633-46.61 32.139 19.512 7.82 35.994 17.455 50.683 26.042 10.005 5.85 19.17 11.206 27.62 15.033 10.037-4.705 33.333-7.22 52.546-9.295 12.088-1.304 22.505-2.429 26.195-3.66 5.54-1.85 13.461-4.278 23.348-5.32 5.149-.545 10.823-.712 16.96-.227 7.157-28.497 10.636-62.187 11.602-72.705-2.193-.65-4.156-1.842-5.731-3.42-2.452-2.456-3.97-5.85-3.97-9.598 0-.683.05-1.354.147-2.01-7.486-3.164-27.6-12.153-58.19-29.442zM116.21 376.78c5.018-2.28 26.988-17.826 49.505-33.76 20.832-14.741 42.125-29.81 51.46-35.349 4.048-2.403 8.5-4.822 12.957-7.245 10.11-5.497 20.26-11.015 27.812-17.756-18.617-11.097-34.083-23.83-45.509-36.893-11.563-13.22-19.037-26.845-21.534-39.564-11.001 2.443-44.425 11.665-54.502 35.212-6.168 14.412-11.352 37.008-14.929 61.708-3.554 24.538-5.506 51.048-5.26 73.647zm273.975-218.703c11.09-.048 23-.225 34.344-.708 14.963-.636 28.83-1.8 38.255-3.897 14.69-3.27 31.332.572 51.788 5.291 7.818 1.805 16.207 3.74 25.157 5.434 4.72.893 10.135 2.22 16.056 3.859-3.736-21.987-8.08-40.07-11.366-47.249-2.075-4.532-6.14-11.076-11.334-18.705-14.627 1.024-24.641 1.814-26.277 2.157-3.063.642-17.828 5.954-34.296 12.08-22.812 8.488-48.698 18.472-51.569 19.884-1.846.909-8.22 5.377-16.209 11.168-4.532 3.286-9.55 6.98-14.549 10.686zM197.93 204.9c2.254 11.456 9.153 23.918 19.874 36.174 11.241 12.853 26.631 25.408 45.254 36.319 1.692-2.06 3.136-4.239 4.272-6.56 5.433-11.112 19.44-19.898 32.738-28.243 9.058-5.682 17.768-11.147 22.54-16.628 6.174-7.092 11.332-15.348 14.276-23.838 2.13-6.146 3.095-12.405 2.424-18.405-22.736 4.748-54.54 9.005-84.722 13.043-20.828 2.787-40.869 5.47-56.656 8.138zm279.88 144.422c-1.156-1.159-2.757-1.876-4.522-1.876-1.768 0-3.368.717-4.525 1.876-1.158 1.159-1.873 2.762-1.873 4.53 0 1.77.715 3.373 1.873 4.531 1.157 1.16 2.757 1.876 4.525 1.876 1.765 0 3.366-.717 4.523-1.876 1.157-1.158 1.873-2.76 1.873-4.53 0-1.77-.716-3.372-1.873-4.53zm-4.522-9.044c3.556 0 6.795 1.372 9.214 3.62l.897-.543c11.168-6.745 36.533-22.065 60.377-21.568 5.502.115 11.98 1.09 18.9 2.607l.008-6.607c.026-22.481.048-43.094.74-58.113.95-20.626-1.229-47.29-4.627-71.997-.553-4.012-1.135-7.969-1.742-11.837-6.977-2-13.292-3.602-18.64-4.614-9.163-1.733-17.586-3.677-25.437-5.489-19.607-4.524-35.56-8.206-48.655-5.292-9.902 2.203-24.189 3.414-39.514 4.066-14.717.625-30.5.737-44.224.724-4.394 3.288-8.49 6.373-11.89 8.946-3.739 2.829-11.696 5.479-22.386 7.992.961 7.34-.135 14.915-2.687 22.275-3.262 9.41-8.913 18.483-15.646 26.218-5.431 6.24-14.6 11.993-24.134 17.973-12.452 7.813-25.566 16.04-30.11 25.33-1.217 2.491-2.7 4.817-4.397 7.006 29.731 16.732 49.106 25.356 56.164 28.33.295-.364.608-.712.939-1.043 2.453-2.457 5.842-3.976 9.585-3.976 3.743 0 7.132 1.519 9.585 3.976 2.321 2.324 3.804 5.487 3.957 8.996 10.709.186 19.52-1.438 27.956-2.994 10.764-1.985 20.95-3.863 33.809-2.06 7.936 1.111 16.134 3.043 23.1 5.162 7.977 2.428 14.46 5.173 17.274 7.305 3.793 2.87 6.542 5.161 9.332 8.009 2.267 2.313 4.505 4.946 7.315 8.526 1.53-.6 3.194-.928 4.937-.928zm-5.048 26.178c-4.825 7.729-15.746 26.1-21.277 42.427 25.419 3.394 47.506 21.497 66.287 36.896 7.146 5.858 13.8 11.313 19.816 15.267 3.17 2.083 6.807 4.469 10.808 7.053 6.464-5.723 10.976-12.065 12.461-19.047 5.629-26.446 6.227-73.883 6.328-117.346-7.05-1.618-13.602-2.665-19.028-2.778-21.753-.454-45.909 14.136-56.545 20.56l-.808.488c.365 1.228.561 2.53.561 3.877 0 3.748-1.518 7.142-3.971 9.598-2.453 2.458-5.842 3.977-9.584 3.977-1.784 0-3.488-.345-5.048-.972zm-28.607 41.827c5.708-17.81 17.962-38.274 22.906-46.156-1.76-2.291-2.808-5.16-2.808-8.274 0-3.162 1.08-6.072 2.89-8.38-2.585-3.29-4.638-5.703-6.673-7.78-2.474-2.525-5.005-4.627-8.55-7.31-2.21-1.675-7.853-3.998-15.039-6.185-6.605-2.01-14.411-3.846-22.008-4.91-11.745-1.646-21.372.128-31.544 2.005-9.194 1.696-18.815 3.468-30.887 3.078-.622 1.138-1.403 2.178-2.312 3.089-1.703 1.706-3.859 2.96-6.271 3.567-.91 9.981-4.366 43.956-11.662 73.393 3.574.56 7.282 1.348 11.114 2.414 14.78 4.111 35.85 3.14 57.887 2.124 14.341-.66 29.085-1.34 42.957-.675zm-11.867 100.15c-1.158-1.158-2.758-1.875-4.524-1.875-1.768 0-3.367.717-4.525 1.876-1.157 1.158-1.873 2.761-1.873 4.53 0 1.77.716 3.372 1.873 4.53 1.158 1.16 2.757 1.877 4.525 1.877 1.766 0 3.366-.717 4.524-1.876 1.156-1.159 1.873-2.761 1.873-4.53 0-1.77-.717-3.373-1.873-4.531zm-5.242-9.025c1.26-9.924 4.417-29.734 7.869-48.68 2.468-13.552 5.083-26.646 7.259-35.373-13.125-.526-27.08.118-40.669.744-22.608 1.042-44.225 2.038-60.096-2.377-3.816-1.06-7.498-1.826-11.037-2.347-3.025 10.896-6.623 20.8-10.87 28.115-6.63 11.42-22.83 25.328-42.634 38.832 5.193 6.294 18.354 20.858 32.077 25.046 17.151 5.234 86.63 5.874 105.742 6.006.63-2.306 1.852-4.367 3.491-6.008 2.296-2.3 5.41-3.777 8.868-3.958zm13.625 9.4c14.667-2.723 71.678-14.372 101.811-36.011-3.222-2.09-6.176-4.029-8.808-5.759-6.364-4.183-13.147-9.743-20.431-15.715-18.341-15.036-39.967-32.763-63.814-35.488-2.218 8.572-4.94 22.125-7.496 36.154-3.502 19.223-6.701 39.374-7.882 48.946 1.22.641 2.332 1.463 3.298 2.43 1.504 1.507 2.656 3.366 3.322 5.443zm-505.148-344.61c16.227 3.07 40.646 11.264 65.693 19.67 25.158 8.443 50.957 17.101 69.295 20.846 34.683 7.081 98.472.93 104.327.342 8.242-3.214 15.535-5.057 19.58-5.944-2.101-16.685-6.96-49.017-12.378-77.753-3.616-19.187-7.471-36.749-10.895-46.9-1.944.061-3.62.23-4.957.591-9.413 2.538-74.305 16.714-74.493 16.754l-.234.052-.31.018c-.52.03-181.113 10.827-188.55 12.386l-1.453-7.001c7.782-1.632 181.327-12.032 189.272-12.507 4.218-.922 65.03-14.221 73.922-16.618 1.348-.364 2.837-.584 4.46-.708-3.863-14.195-2.247-30.551-.405-49.168 1.358-13.73 2.842-28.728 2.27-44.775l7.13-.253c.59 16.54-.918 31.778-2.298 45.728-1.852 18.73-3.468 35.069.717 48.372 1.044.024 2.122.057 3.235.09 9.64.295 22.014.672 34.732-3.862C230.54 56.117 406.026-40.05 406.531-40.327l3.412 6.273c-.507.277-176.55 96.75-197.905 104.36-13.934 4.967-27.07 4.567-37.305 4.255l-.58-.018c3.347 10.75 6.982 27.451 10.384 45.5 5.414 28.724 10.263 60.898 12.402 77.761 15.537-2.615 35.737-5.318 56.724-8.126 48.125-6.44 100.461-13.443 110.725-21.209 9.527-7.209 24.469-18.403 36.152-26.873 8.222-5.961 14.938-10.637 17.272-11.784 3.038-1.495 29.248-11.62 52.212-20.164 16.774-6.24 31.92-11.674 35.33-12.389 1.603-.336 10.24-1.044 23.006-1.96-9.314-13.197-20.924-28.528-31.2-42.096-5.286-6.982-10.235-13.515-13.925-18.49-19.269-25.977-21.45-80.67-21.456-80.828l7.13-.308c.006.152 2.106 52.677 20.059 76.88 4.335 5.844 8.944 11.932 13.87 18.434 11.215 14.81 24.003 31.697 33.805 45.825 53.876-3.74 157.9-9.959 158.294-9.983l.42 7.14c-.385.024-99.666 5.959-154.075 9.665 4.33 6.523 7.727 12.157 9.623 16.303 3.665 8.008 8.5 28.286 12.475 52.403 12.768 3.8 27.296 8.675 42.042 13.624 25.158 8.443 50.958 17.101 69.296 20.846l-1.426 7c-18.774-3.832-44.777-12.56-70.135-21.07-13.442-4.51-26.7-8.96-38.537-12.564.433 2.847.85 5.733 1.252 8.645 3.446 25.062 5.655 52.173 4.682 73.257-.692 15.027-.715 35.489-.74 57.805-.003 2.746-.005 5.52-.01 8.316 7.783 2.01 15.88 4.537 23.612 7.179 17.102 5.845 32.43 12.237 38.453 14.757 11.447 4.791 30.587 13.087 30.643 13.11l-2.824 6.553c-.051-.022-18.027-7.81-30.559-13.054-5.967-2.498-21.152-8.83-38.006-14.59-7.01-2.395-14.307-4.694-21.334-6.574-.115 43.364-.783 90.36-6.462 117.052-1.679 7.886-6.56 15.001-13.5 21.38 9.237 5.872 19.92 12.429 31.065 18.664 18.828 10.534 39.113 20.261 56.282 24.471 34.856 8.548 42.916 10.272 42.94 10.277l-1.482 7c-.023-.005-7.843-1.677-43.136-10.333-17.906-4.39-38.783-14.378-58.071-25.17-12.182-6.816-23.677-13.91-33.38-20.11-32.362 24.49-94.11 36.84-107.594 39.31-.307 1.336-.812 2.597-1.482 3.75 27.117 17.964 33.792 42.524 33.814 42.598l.107.38.019.432c.006.152 2.106 52.678 20.059 76.88l-5.733 4.256c-18.275-24.636-21.18-75.094-21.436-80.371-.9-2.943-7.966-23.718-32.07-39.064-1.927 1.054-4.137 1.653-6.487 1.653h-.103l-11.435 46.719-.376 1.536-1.385.76c-.507.277-176.55 96.75-197.905 104.36l-2.377-6.748c19.827-7.066 179.063-94.136 195.485-103.126l11.12-45.433c-.952-.574-1.828-1.261-2.61-2.044-1.649-1.652-2.876-3.726-3.502-6.049-19.282-.132-89.687-.785-107.8-6.314-15.934-4.863-30.675-21.402-35.982-27.887-4.122 2.698-8.366 5.37-12.683 7.988-30.328 18.393-64.494 34.393-85.31 39.623 2.642 17.309 4.288 35.869 4.896 52.914.59 16.54-.918 31.778-2.298 45.728-1.96 19.81-3.655 36.946 1.498 50.643l-6.683 2.52c-5.737-15.249-3.965-33.159-1.917-53.863 1.358-13.73 2.842-28.728 2.27-44.775-.593-16.631-2.195-34.748-4.768-51.69-37.755 6.785-90.936 1-91.095.983l-.229-.024-.149-.031c-.023-.006-7.844-1.678-43.137-10.334-17.905-4.39-38.782-14.378-58.07-25.17-19.267-10.78-36.817-22.257-48.273-29.787l3.914-5.992c11.45 7.525 28.976 18.987 47.826 29.534 18.828 10.534 39.112 20.261 56.281 24.471 32.314 7.924 41.597 9.983 42.798 10.246 2.936.308 33.764 3.429 63.95 1.79l18.608-31.248c-2.447-8.218-5.233-15.181-8.345-20.256-1.72-2.805-3.797-5.974-5.986-9.315-12.43-18.962-28.467-43.435-30.207-82.008-4.236-.339-9.24-1.267-14.556-2.547-15.978-3.846-35.249-10.768-43.594-13.94-8.323-3.165-13.47-5.49-18.956-7.968-3.494-1.579-7.128-3.22-11.756-5.157-5.967-2.498-21.152-8.83-38.006-14.59-16.716-5.71-35.056-10.87-47.488-11.13-21.754-.454-45.909 14.136-56.546 20.56-1.327.802-2.437 1.472-3.605 2.137l-3.523-6.216c.663-.378 1.924-1.14 3.437-2.054 11.17-6.745 36.534-22.065 60.377-21.568 13.338.279 32.4 5.603 49.64 11.495 17.103 5.845 32.431 12.237 38.453 14.757 4.762 1.992 8.428 3.649 11.953 5.242 5.423 2.45 10.511 4.748 18.537 7.8 8.24 3.132 27.22 9.955 42.727 13.687 4.794 1.155 9.199 2.024 12.725 2.399-.275-23.07 1.701-50.099 5.314-75.042 3.66-25.266 9.013-48.5 15.432-63.5 4.649-10.861 13.46-18.978 23.066-24.964-23.238 1.597-63.057 3.214-88.331-1.946-18.773-3.833-44.776-12.56-70.134-21.07-24.797-8.322-48.974-16.436-64.742-19.419l1.314-7.028z" mask="url(#vx22oucl5h)"/>
                                        </g>
                                        <path fill="#FFF" d="M201.484 86.376L241.3 135.287 241.313 135.304 262.698 162.634 262.841 162.816 262.895 163.041 273.897 208.575 271.817 209.079 260.869 163.77 239.64 136.639 239.64 136.639 199.823 87.728zM64.306 280.713L176.67 246.559 213.841 231.324 214.646 233.306 177.422 248.563 177.371 248.585 177.331 248.597 64.927 282.762zM186.095 262.233L110.937 286.397 110.937 286.398 73.515 299.192 72.827 297.159 110.25 284.365 110.267 284.361 185.441 260.192z" transform="translate(-50.928 -204)"/>
                                        <path fill="#FFF" d="M130.593 349.4c.636-.144 2.888-.643 5.875-1.305 9.95-2.205 28.53-6.323 32.286-7.298 4.191-1.088 10.165-12.434 12.004-15.926l.2-.382c1.273-2.407-22.089-30.733-22.156-30.814l-.15-.182-.059-.221-9.998-37.065 2.072-.555 9.937 36.844c2.025 2.463 24.113 29.47 22.251 32.993l-.202.382c-1.942 3.688-8.253 15.674-13.362 17.001-3.764.977-22.389 5.105-32.362 7.315-2.695.597-4.721 1.047-5.866 1.304l-.47-2.092zM175.789 294.32L197.784 280.214 225.17 251.594 226.713 253.082 199.238 281.793 199.15 281.886 199.046 281.953 176.946 296.126z" transform="translate(-50.928 -204)"/>
                                        <path fill="#FFF" d="M167.036 302.221L133.872 328.565 132.538 326.885 165.703 300.541zM206.65 254.163c.018.019 6.897 6.547 9.16 8.792 2.344 2.326 18.12 29.715 18.165 29.793l-1.854 1.076c-.045-.078-15.686-27.229-17.821-29.348-2.218-2.201-9.108-8.74-9.128-8.759l1.477-1.554zM161.363 226.713L153.367 197.273 153.37 197.271 138.01 142.261 138.011 142.26 125.546 99.311 127.601 98.714 140.07 141.676 140.074 141.689 155.434 196.705 155.438 196.71 163.435 226.151zM119.957 232.522L129.622 261.957 127.584 262.62 117.918 233.186zM68.97 220.483L85.575 275.271 108.028 322.918 106.09 323.832 83.609 276.127 83.582 276.069 83.555 275.98 66.923 221.104zM122.788 205.572L130.394 227.194 128.372 227.908 120.767 206.286z" transform="translate(-50.928 -204)"/>
                                        <path fill="#FFF" d="M158.842 213.339L207.835 199.889 208.398 201.956 159.404 215.405zM118.71 182.047c-.021-.003-7.225-1.057-9.74-.637-2.619.438-82.93 27.171-83.16 27.248l-.672-2.033c.232-.077 80.73-26.872 83.48-27.331 2.853-.476 10.372.625 10.394.628l-.302 2.125z" transform="translate(-50.928 -204)"/>
                                        <path fill="#FFF" d="M177.537 190.729L187.589 224.27 185.534 224.884 175.481 191.342zM188.505 188.131L198.558 221.672 196.503 222.286 186.45 188.744z" transform="translate(-50.928 -204)"/>
                                    </g>
                                </g>
                            </g>
                            <g fill="#00819E" mask="url(#vbjt7il7mc)">
                                <path d="M12.071 22.798c-.42.006-.821-.168-1.105-.477l-.072-.072C10.216 21.391 4.2 13.715 4.2 9.02 4.207 4.703 7.695 1.207 12 1.2c4.281.064 7.736 3.527 7.8 7.82 0 4.516-5.695 11.918-6.587 13.11-.211.434-.662.697-1.142.668zm0-1.74v.166-.166zm0 0v.166-.166zm0-14.673c-1.068 0-2.032.646-2.44 1.636-.407.99-.18 2.13.578 2.885.757.756 1.895.98 2.88.566.987-.413 1.627-1.382 1.622-2.453-.02-1.453-1.19-2.627-2.64-2.646v.012z" transform="translate(96.667 18)"/>
                            </g>
                            <g fill="#E00034" mask="url(#vbjt7il7mc)">
                                <path d="M12.071 22.798c-.42.006-.821-.168-1.105-.477l-.072-.072C10.216 21.391 4.2 13.715 4.2 9.02 4.207 4.703 7.695 1.207 12 1.2c4.281.064 7.736 3.527 7.8 7.82 0 4.516-5.695 11.918-6.587 13.11-.211.434-.662.697-1.142.668zm0-1.74v.166-.166zm0 0v.166-.166zm0-14.673c-1.068 0-2.032.646-2.44 1.636-.407.99-.18 2.13.578 2.885.757.756 1.895.98 2.88.566.987-.413 1.627-1.382 1.622-2.453-.02-1.453-1.19-2.627-2.64-2.646v.012z" transform="translate(21 50)"/>
                            </g>
                        </g>
                    </g>
                </g>
            </g>
        </g>
    </g>
</svg>
